<svg width="347" height="197" viewBox="0 0 347 197" fill="none" xmlns="http://www.w3.org/2000/svg">
<path d="M0 196.039H347" stroke="#EFEFEF"/>
<path d="M0 150.961H347" stroke="#EFEFEF"/>
<path d="M315.898 195.691L315.898 0.00157437" stroke="url(#paint0_linear_13660_6590)"/>
<path d="M223.648 195.691L223.648 0.00157437" stroke="url(#paint1_linear_13660_6590)"/>
<path d="M85.2578 195.691L85.2578 0.00157437" stroke="url(#paint2_linear_13660_6590)"/>
<path d="M269.773 195.691L269.773 0.00157437" stroke="url(#paint3_linear_13660_6590)"/>
<path d="M131.391 195.691L131.391 0.00157437" stroke="url(#paint4_linear_13660_6590)"/>
<path d="M177.516 195.691L177.516 0.00157437" stroke="url(#paint5_linear_13660_6590)"/>
<path d="M39.1406 195.691L39.1406 0.00157437" stroke="url(#paint6_linear_13660_6590)"/>
<path d="M0 106.234H347" stroke="#EFEFEF"/>
<path d="M0 61.5039H347" stroke="#EFEFEF"/>
<path d="M279.494 51.4897C279.561 50.9416 279.172 50.4424 278.624 50.3747L269.691 49.272C269.143 49.2043 268.644 49.5938 268.576 50.1419C268.509 50.69 268.898 51.1892 269.446 51.2569L277.386 52.2371L276.406 60.1768C276.338 60.725 276.728 61.2242 277.276 61.2918C277.824 61.3595 278.323 60.97 278.391 60.4219L279.494 51.4897ZM76.8707 128.944L77.4576 129.754L77.4966 129.726L77.5326 129.694L76.8707 128.944ZM51.8263 147.097L51.2395 146.288L51.8263 147.097ZM196.826 73.5612L196.718 72.567L196.826 73.5612ZM200.137 73.4785L200.079 74.4768L200.137 73.4785ZM139.617 81.918L140.162 82.7568L139.617 81.918ZM102.669 106.161L102.007 105.411L102.669 106.161ZM105.019 104.377L104.474 103.538L105.019 104.377ZM77.5326 129.694L103.331 106.911L102.007 105.411L76.2088 128.195L77.5326 129.694ZM26.7518 195.774L46.4589 155.02L44.6583 154.149L24.9513 194.903L26.7518 195.774ZM52.4132 147.907L77.4576 129.754L76.2838 128.135L51.2395 146.288L52.4132 147.907ZM105.563 105.215L140.162 82.7568L139.073 81.0792L104.474 103.538L105.563 105.215ZM148.461 79.804L196.934 74.5553L196.718 72.567L148.246 77.8156L148.461 79.804ZM200.079 74.4768L239.123 76.7402L239.239 74.7436L200.195 72.4801L200.079 74.4768ZM253.256 72.3322L279.116 52.1556L277.886 50.5788L252.026 70.7553L253.256 72.3322ZM239.123 76.7402C244.213 77.0353 249.236 75.4685 253.256 72.3322L252.026 70.7553C248.389 73.593 243.844 75.0105 239.239 74.7436L239.123 76.7402ZM46.4589 155.02C47.8256 152.193 49.8713 149.75 52.4132 147.907L51.2395 146.288C48.43 148.324 46.1689 151.025 44.6583 154.149L46.4589 155.02ZM196.934 74.5553C197.978 74.4423 199.03 74.416 200.079 74.4768L200.195 72.4801C199.035 72.4129 197.873 72.442 196.718 72.567L196.934 74.5553ZM140.162 82.7568C142.659 81.1359 145.501 80.1244 148.461 79.804L148.246 77.8156C144.975 78.1698 141.832 79.2877 139.073 81.0792L140.162 82.7568ZM103.331 106.911C104.033 106.291 104.779 105.725 105.563 105.215L104.474 103.538C103.607 104.101 102.782 104.727 102.007 105.411L103.331 106.911Z" fill="#6D3187"/>
<path opacity="0.2" d="M102.669 106.162L76.8707 128.945L51.8263 147.098C49.1506 149.037 46.9972 151.61 45.5586 154.585L25.8516 195.339H305.408L264.523 61.1523L252.795 71.0413C248.882 74.34 243.854 76.0135 238.745 75.7173L200.137 73.4791C199.033 73.4151 197.925 73.4428 196.826 73.5618L148.353 78.8104C145.238 79.1478 142.245 80.2125 139.617 81.9186L105.019 104.377C104.193 104.913 103.407 105.51 102.669 106.162Z" fill="url(#paint7_linear_13660_6590)"/>
<path d="M162.127 140.75L157.383 136.006L171.761 121.627L178.47 128.336L186.217 120.588L183.948 118.319L195.551 116L193.232 127.599L190.961 125.331L178.47 137.824L171.761 131.115L162.127 140.75Z" fill="#8CD96B"/>
<path d="M186.214 120.595L178.467 128.344L176.453 126.331V135.818L178.467 137.832L190.957 125.339L193.229 127.607L195.548 116.008L183.944 118.327L186.214 120.595Z" fill="#5AB267"/>
<circle cx="47.8794" cy="150.614" r="2.39502" fill="white" stroke="#6D3B9F" stroke-width="1.5"/>
<circle cx="103.09" cy="105.184" r="2.39502" fill="white" stroke="#6D3B9F" stroke-width="1.5"/>
<circle cx="145.715" cy="78.6255" r="2.39502" fill="white" stroke="#6D3B9F" stroke-width="1.5"/>
<path d="M210.083 125.144C207.527 125.144 205.313 123.686 205.313 121.238C205.313 119.852 206.159 118.664 207.455 118.214C206.501 117.764 205.889 116.774 205.889 115.694C205.889 113.822 207.581 112.256 210.083 112.256C212.567 112.256 214.277 113.822 214.277 115.694C214.277 116.792 213.647 117.782 212.675 118.214C213.989 118.646 214.835 119.834 214.835 121.238C214.835 123.686 212.621 125.144 210.083 125.144ZM210.083 117.026C210.893 117.026 211.433 116.558 211.433 115.82C211.433 115.082 210.893 114.614 210.083 114.614C209.255 114.614 208.733 115.082 208.733 115.82C208.733 116.558 209.255 117.026 210.083 117.026ZM210.083 122.588C211.109 122.588 211.739 122.03 211.739 121.166C211.739 120.302 211.109 119.744 210.083 119.744C209.075 119.744 208.409 120.302 208.409 121.166C208.409 122.03 209.075 122.588 210.083 122.588ZM221.295 125.144C218.055 125.144 215.913 122.606 215.913 118.7C215.913 114.794 218.055 112.256 221.295 112.256C224.553 112.256 226.695 114.794 226.695 118.7C226.695 122.606 224.553 125.144 221.295 125.144ZM221.295 122.408C222.717 122.408 223.491 121.112 223.491 118.7C223.491 116.288 222.717 114.992 221.295 114.992C219.873 114.992 219.117 116.288 219.117 118.7C219.117 121.112 219.873 122.408 221.295 122.408ZM233.16 125.144C229.92 125.144 227.778 122.606 227.778 118.7C227.778 114.794 229.92 112.256 233.16 112.256C236.418 112.256 238.56 114.794 238.56 118.7C238.56 122.606 236.418 125.144 233.16 125.144ZM233.16 122.408C234.582 122.408 235.356 121.112 235.356 118.7C235.356 116.288 234.582 114.992 233.16 114.992C231.738 114.992 230.982 116.288 230.982 118.7C230.982 121.112 231.738 122.408 233.16 122.408ZM245.026 125.144C241.786 125.144 239.644 122.606 239.644 118.7C239.644 114.794 241.786 112.256 245.026 112.256C248.284 112.256 250.426 114.794 250.426 118.7C250.426 122.606 248.284 125.144 245.026 125.144ZM245.026 122.408C246.448 122.408 247.222 121.112 247.222 118.7C247.222 116.288 246.448 114.992 245.026 114.992C243.604 114.992 242.848 116.288 242.848 118.7C242.848 121.112 243.604 122.408 245.026 122.408ZM260.509 118.034V120.554H257.269V123.794H254.749V120.554H251.509V118.034H254.749V114.794H257.269V118.034H260.509Z" fill="#19101D"/>
<path d="M208.313 140.096C206.693 140.096 205.397 139.052 205.121 137.516L206.153 137.18C206.321 138.356 207.221 139.124 208.337 139.124C209.489 139.124 210.233 138.584 210.233 137.744C210.233 135.5 205.457 136.676 205.457 133.7C205.457 132.392 206.633 131.504 208.289 131.504C209.825 131.504 211.013 132.332 211.229 133.58L210.233 133.964C210.065 133.052 209.345 132.476 208.289 132.476C207.209 132.476 206.561 132.944 206.561 133.7C206.561 135.62 211.361 134.372 211.361 137.732C211.361 139.16 210.149 140.096 208.313 140.096ZM215.837 139.952C215.537 140.06 215.213 140.096 214.889 140.096C213.857 140.096 213.101 139.52 213.101 138.188V134.852H211.973V133.952H213.101V132.116H214.121V133.952H215.741V134.852H214.121V138.224C214.121 138.86 214.481 139.172 215.009 139.172C215.249 139.172 215.525 139.136 215.765 139.016L215.837 139.952ZM222.225 133.952V140H221.205V138.86C220.785 139.58 220.053 140.096 219.129 140.096C217.869 140.096 216.969 139.244 216.969 137.96V133.952H217.989V137.768C217.989 138.584 218.505 139.172 219.357 139.172C220.485 139.172 221.205 138.2 221.205 136.604V133.952H222.225ZM226.451 140.096C224.567 140.096 223.535 138.752 223.535 136.976C223.535 135.2 224.567 133.856 226.439 133.856C227.243 133.856 228.035 134.252 228.419 134.816V131.504H229.439V140H228.419V139.124C228.143 139.676 227.339 140.096 226.451 140.096ZM226.547 139.184C227.735 139.184 228.515 138.308 228.515 136.976C228.515 135.644 227.735 134.768 226.547 134.768C225.359 134.768 224.579 135.644 224.579 136.976C224.579 138.308 225.359 139.184 226.547 139.184ZM231.018 131.504H232.194V132.8H231.018V131.504ZM231.09 140V133.952H232.11V140H231.09ZM239.234 136.7C239.234 136.844 239.222 137.06 239.21 137.168H234.434C234.506 138.392 235.274 139.196 236.366 139.196C237.29 139.196 237.926 138.764 238.106 138.008L239.066 138.236C238.766 139.412 237.758 140.096 236.366 140.096C234.554 140.096 233.414 138.692 233.414 136.976C233.414 135.26 234.518 133.856 236.342 133.856C238.13 133.856 239.234 135.14 239.234 136.7ZM234.494 136.316H238.154C238.058 135.392 237.41 134.708 236.342 134.708C235.394 134.708 234.698 135.308 234.494 136.316ZM242.516 140.096C241.052 140.096 240.26 139.184 239.996 138.332L240.872 137.948C241.1 138.656 241.58 139.232 242.516 139.232C243.26 139.232 243.74 138.8 243.74 138.308C243.74 136.76 240.26 137.756 240.26 135.464C240.26 134.504 241.088 133.856 242.384 133.856C243.452 133.856 244.376 134.456 244.628 135.344L243.776 135.716C243.608 135.092 243.008 134.696 242.36 134.696C241.676 134.696 241.244 134.972 241.244 135.452C241.244 136.748 244.748 135.8 244.736 138.296C244.736 139.352 243.848 140.096 242.516 140.096ZM251.65 140.096C249.85 140.096 248.578 138.788 248.578 136.976C248.578 135.164 249.85 133.856 251.65 133.856C253.438 133.856 254.734 135.164 254.734 136.976C254.734 138.788 253.438 140.096 251.65 140.096ZM251.65 139.184C252.862 139.184 253.678 138.272 253.678 136.976C253.678 135.68 252.862 134.768 251.65 134.768C250.438 134.768 249.622 135.68 249.622 136.976C249.622 138.272 250.438 139.184 251.65 139.184ZM256.039 140V133.952H257.059V135.092C257.479 134.372 258.211 133.856 259.135 133.856C260.395 133.856 261.295 134.708 261.295 135.992V140H260.275V136.184C260.275 135.368 259.759 134.78 258.907 134.78C257.779 134.78 257.059 135.752 257.059 137.348V140H256.039ZM272.424 140H271.176L268.848 136.256H266.988V140H265.896V131.6H268.92C270.516 131.6 271.56 132.524 271.56 133.928C271.56 134.96 270.972 135.752 270 136.088L272.424 140ZM266.988 132.572V135.272H268.8C269.832 135.272 270.444 134.78 270.444 133.928C270.444 133.076 269.832 132.572 268.8 132.572H266.988ZM278.597 136.7C278.597 136.844 278.585 137.06 278.573 137.168H273.797C273.869 138.392 274.637 139.196 275.729 139.196C276.653 139.196 277.289 138.764 277.469 138.008L278.429 138.236C278.129 139.412 277.121 140.096 275.729 140.096C273.917 140.096 272.777 138.692 272.777 136.976C272.777 135.26 273.881 133.856 275.705 133.856C277.493 133.856 278.597 135.14 278.597 136.7ZM273.857 136.316H277.517C277.421 135.392 276.773 134.708 275.705 134.708C274.757 134.708 274.061 135.308 273.857 136.316ZM282.478 140.096C280.594 140.096 279.562 138.752 279.562 136.976C279.562 135.2 280.594 133.856 282.466 133.856C283.27 133.856 284.062 134.252 284.446 134.816V131.504H285.466V140H284.446V139.124C284.17 139.676 283.366 140.096 282.478 140.096ZM282.574 139.184C283.762 139.184 284.542 138.308 284.542 136.976C284.542 135.644 283.762 134.768 282.574 134.768C281.386 134.768 280.606 135.644 280.606 136.976C280.606 138.308 281.386 139.184 282.574 139.184ZM287.165 140V131.6H290.201C291.785 131.6 292.769 132.392 292.769 133.76C292.769 134.54 292.229 135.164 291.665 135.404C292.517 135.704 293.141 136.376 293.141 137.552C293.141 139.064 292.109 140 290.381 140H287.165ZM288.245 135.056H290.153C291.149 135.056 291.689 134.636 291.689 133.796C291.689 132.956 291.149 132.536 290.153 132.536H288.245V135.056ZM288.245 139.016H290.201C291.425 139.016 292.049 138.5 292.049 137.528C292.049 136.544 291.425 136.016 290.201 136.016H288.245V139.016ZM298.005 134.948C297.777 134.852 297.489 134.804 297.225 134.804C296.265 134.804 295.485 135.728 295.485 137.696V140H294.465V133.952H295.485V135.176C295.833 134.408 296.625 133.856 297.369 133.856C297.621 133.856 297.861 133.892 298.065 133.964L298.005 134.948ZM298.986 131.504H300.162V132.8H298.986V131.504ZM299.058 140V133.952H300.078V140H299.058ZM304.382 140.096C302.582 140.096 301.382 138.848 301.382 136.976C301.382 135.104 302.582 133.856 304.382 133.856C305.786 133.856 306.818 134.624 307.034 135.824L306.026 136.028C305.894 135.296 305.258 134.768 304.406 134.768C303.218 134.768 302.45 135.644 302.45 136.976C302.45 138.308 303.218 139.184 304.406 139.184C305.258 139.184 305.882 138.716 306.05 137.912L307.046 138.116C306.782 139.364 305.774 140.096 304.382 140.096ZM312.432 140L310.152 137.024L309.348 137.756V140H308.316V131.504H309.348V136.412L312.144 133.952H313.5L310.908 136.34L313.704 140H312.432ZM323.382 140L322.554 137.864H318.822L317.994 140H316.866L320.19 131.6H321.186L324.522 140H323.382ZM319.194 136.892H322.182L320.694 133.04L319.194 136.892ZM325.485 140V131.6H326.577V140H325.485Z" fill="#19101D"/>
<path d="M79.8351 42.4695C78.2438 42.9651 77.5134 42.4173 77.5134 41.8695C77.5134 41.0086 78.9221 40.7999 79.8351 40.6955V42.4695ZM53.1482 42.2347C51.296 42.2347 50.4351 40.826 50.4351 39.0521C50.4351 37.2521 51.296 35.8434 53.1482 35.8434C55.0003 35.8434 55.8351 37.2521 55.8351 39.0521C55.8612 40.826 55.0003 42.2347 53.1482 42.2347ZM69.5308 38.0347C70.3134 38.0347 70.7047 38.6868 70.6786 39.4434H68.1221C68.1482 38.6608 68.5916 38.0347 69.5308 38.0347ZM78.8699 36.5216C77.0699 36.5216 75.1916 36.9912 74.7743 38.5564L77.4612 38.9999C77.6438 38.4521 77.9569 38.1129 78.7395 38.1129C79.3134 38.1129 79.8351 38.2955 79.8351 38.8434V39.4434C77.2786 39.4695 74.5656 40.0173 74.3569 41.8695C70.9134 43.2521 68.2003 42.3912 68.096 40.8521H74.0438V40.6434C74.0438 37.7738 72.3482 36.4955 69.6351 36.4955C66.6351 36.4955 64.7308 38.1129 64.7308 40.3564C64.7308 41.0608 64.9134 41.6608 65.2264 42.1564C64.8351 42.3912 64.3395 42.5216 63.896 42.5216C62.6699 42.5216 61.7569 41.8695 61.7569 40.826V33.626H58.3656V36.4955C57.9482 35.7129 57.2699 35.0608 56.4873 34.6434C55.5221 34.1216 54.1916 33.9912 53.1221 33.9912C52.2612 33.9912 51.3743 34.0955 50.5395 34.3303C49.8612 34.539 49.2351 34.9303 48.7134 35.3999C47.7221 36.3129 47.3047 37.6955 47.3047 39.0521C47.3047 40.4347 47.696 41.739 48.7134 42.7042C49.9134 43.826 51.5308 44.1129 53.1221 44.1129C53.9829 44.1129 54.8699 44.0347 55.7047 43.7738C56.3829 43.5651 57.009 43.1999 57.5308 42.7042C57.9482 42.3129 58.2612 41.8434 58.4699 41.3477C58.9395 43.1999 60.7656 44.2695 63.2438 44.2695C64.6003 44.2695 65.696 44.0086 66.609 43.5129C68.696 44.6608 72.1134 44.5303 74.7221 43.2782C76.1308 45.0521 80.9569 44.2695 82.9395 42.626V38.6608C82.9656 37.5129 82.2351 36.5216 78.8699 36.5216Z" fill="#682682"/>
<path d="M48.9453 46.0699H49.8323V46.8003H49.8584C50.2236 46.2003 50.7192 45.9395 51.4757 45.9395C52.0757 45.9395 52.6497 46.2264 52.9366 46.9308C53.2757 46.2003 54.0584 45.9395 54.5279 45.9395C55.8323 45.9395 56.3018 46.7742 56.3018 47.896V51.1829H55.3627V48.1308C55.3627 47.5047 55.2062 46.696 54.4497 46.696C53.4844 46.696 53.1192 47.6351 53.1192 48.6003V51.1829H52.1801V48.1308C52.1801 47.5047 52.0236 46.696 51.2671 46.696C50.3018 46.696 49.9366 47.6351 49.9366 48.6003V51.1829H48.9453V46.0699Z" fill="#F28A48"/>
<path d="M60.5819 48.1301C60.5819 47.3475 60.1123 46.6953 59.3036 46.6953C58.3906 46.6953 57.9992 47.4518 57.921 48.1301H60.5819ZM61.1819 50.9735C60.8166 51.104 60.3993 51.3127 59.5645 51.3127C57.7384 51.3127 56.9297 50.217 56.9297 48.5475C56.9297 47.0344 57.8949 45.9648 59.3297 45.9648C61.0253 45.9648 61.5732 47.217 61.5732 48.8605H57.921C57.921 49.8779 58.7036 50.5561 59.6166 50.5561C60.2427 50.5561 60.9471 50.2431 61.1819 50.0344V50.9735Z" fill="#F28A48"/>
<path d="M63.2438 50.4263H64.2612C65.3569 50.4263 65.8525 49.435 65.8525 48.5219C65.8525 47.5567 65.2525 46.6176 64.2612 46.6176H63.2438V50.4263ZM62.3047 45.835H64.2873C65.8525 45.835 66.896 46.9567 66.896 48.5219C66.896 49.9828 65.8264 51.2089 64.2873 51.2089H62.3047V45.835Z" fill="#F28A48"/>
<path d="M68.5094 46.0693H67.5703V51.1824H68.5094V46.0693Z" fill="#F28A48"/>
<path d="M72.8397 46.9305C72.4745 46.774 72.1092 46.7218 71.8223 46.7218C70.7788 46.7218 70.1788 47.6609 70.1788 48.6261C70.1788 49.5392 70.6745 50.5305 71.8745 50.5305C72.1875 50.5305 72.6049 50.4261 72.8918 50.2435L72.9701 51.0783C72.5788 51.2609 72.1353 51.287 71.7962 51.287C70.2571 51.287 69.1875 50.087 69.1875 48.6C69.1875 47.0348 70.231 45.9131 71.7962 45.9131C72.1875 45.9131 72.6571 45.9913 72.944 46.1218L72.8397 46.9305Z" fill="#F28A48"/>
<path d="M76.9668 48.7561C76.7581 48.7561 76.5755 48.7301 76.3668 48.7301C75.845 48.7301 74.5929 48.8083 74.5929 49.7214C74.5929 50.2692 75.1146 50.5561 75.532 50.5561C76.4711 50.5561 76.9668 49.9822 76.9668 49.2257V48.7561ZM74.1755 46.4344C74.645 46.1475 75.219 45.9648 75.8711 45.9648C77.332 45.9648 77.932 46.6953 77.932 48.0779V50.1909C77.932 50.7648 77.9581 51.0518 77.9842 51.1822H77.0972V50.5301H77.0711C76.8624 50.8431 76.3407 51.3127 75.4798 51.3127C74.3842 51.3127 73.6016 50.8431 73.6016 49.7214C73.6016 48.4431 75.0103 48.0257 75.9755 48.0257C76.3407 48.0257 76.6016 48.0257 76.9668 48.0518C76.9668 47.1648 76.6537 46.7214 75.7146 46.7214C75.1929 46.7214 74.619 46.9301 74.2276 47.2431L74.1755 46.4344Z" fill="#F28A48"/>
<path d="M79.0781 46.0693H80.0173V50.3215H82.4173V51.1824H79.0781V46.0693Z" fill="#F28A48"/>
<path d="M21.9488 33.626H41.514V53.0347H21.4531V33.626H21.9488Z" fill="white"/>
<path d="M30.5043 30.1565L19.9652 33.9652C19.4435 34.1478 19 34.7217 19 35.2174V51.4174C19 51.913 19.4174 52.487 19.9652 52.6957L30.5043 56.8435C30.8174 56.9478 31.1304 57 31.4696 57V30C31.1565 30 30.8174 30.0522 30.5043 30.1565ZM23.4348 38.0609C23.8 37.9826 24.087 38.2696 24.087 38.687C24.087 39.1043 23.8 39.4957 23.4348 39.5478C23.0696 39.6 22.7826 39.313 22.7826 38.9217C22.7826 38.5304 23.0696 38.1391 23.4348 38.0609ZM22.5739 40.4087C22.9391 40.3565 23.2261 40.6435 23.2261 41.0609C23.2261 41.4522 22.9391 41.8174 22.5739 41.8435C22.2087 41.8696 21.9217 41.5826 21.9217 41.1913C21.9217 40.8 22.2087 40.4348 22.5739 40.4087ZM22.4174 43.2261C22.7043 43.2261 22.9391 43.4609 22.9391 43.8C22.9391 44.113 22.7043 44.3739 22.4174 44.3739C22.1304 44.3739 21.8957 44.113 21.8957 43.8C21.8957 43.487 22.1304 43.2261 22.4174 43.2261ZM22.3391 51.6522C22.1304 51.6 21.9478 51.3652 21.9478 51.1304C21.9478 50.8957 22.1304 50.7652 22.3391 50.8174C22.5478 50.8696 22.7304 51.1043 22.7304 51.3391C22.7304 51.5739 22.5478 51.7043 22.3391 51.6522ZM23.3565 51.4435C22.9913 51.3391 22.7043 50.9478 22.7043 50.5565C22.7043 50.1652 22.9913 49.9044 23.3565 49.9826C23.7217 50.0609 24.0087 50.4522 24.0087 50.8696C24.0087 51.2609 23.7217 51.5217 23.3565 51.4435ZM23.5652 48.9652C23.3043 48.913 23.0957 48.6522 23.0957 48.3652C23.0957 48.0783 23.3043 47.8696 23.5652 47.8957C23.8261 47.9217 24.0348 48.2087 24.0348 48.4957C24.0348 48.8087 23.8261 48.9913 23.5652 48.9652ZM23.8 47.3739C23.3565 47.3217 23.0174 46.8783 23.0174 46.4087C23.0174 45.9391 23.3565 45.5478 23.8 45.5739C24.2435 45.6 24.5826 46.0435 24.5826 46.5391C24.5826 47.0609 24.2174 47.4261 23.8 47.3739ZM25.0522 45.2609C25.0522 44.7391 25.3913 44.3217 25.8348 44.3478C26.2783 44.3478 26.6174 44.7913 26.6174 45.3391C26.6174 45.887 26.2783 46.3043 25.8348 46.2522C25.4174 46.2261 25.0522 45.7826 25.0522 45.2609ZM25.8609 46.7217C26.2261 46.7478 26.513 47.1391 26.513 47.6087C26.513 48.0522 26.2261 48.3913 25.8609 48.3391C25.4957 48.287 25.2087 47.8957 25.2087 47.4522C25.2087 47.0348 25.5217 46.6957 25.8609 46.7217ZM26.0957 51.9913C25.887 51.9391 25.7043 51.6783 25.7043 51.4174C25.7043 51.1565 25.887 50.9739 26.0957 51.0261C26.3043 51.0783 26.487 51.3391 26.487 51.6C26.487 51.887 26.3043 52.0696 26.0957 51.9913ZM26.0957 51.0261C25.7304 50.9478 25.4435 50.5304 25.4435 50.087C25.4435 49.6435 25.7304 49.3565 26.0957 49.4087C26.4609 49.4609 26.7478 49.9044 26.7478 50.3478C26.7478 50.8174 26.4609 51.1043 26.0957 51.0261ZM27.0087 52.8C26.8 52.7478 26.6174 52.4609 26.6174 52.2C26.6174 51.9391 26.8 51.7565 27.0087 51.8087C27.2174 51.8609 27.4 52.1217 27.4 52.4087C27.4 52.6696 27.2174 52.8522 27.0087 52.8ZM27.2957 45.287C27.087 45.287 26.9043 45.0522 26.9043 44.7652C26.9043 44.5043 27.087 44.2696 27.2957 44.2696C27.5043 44.2696 27.687 44.5043 27.687 44.7913C27.687 45.0783 27.5043 45.287 27.2957 45.287ZM27.2435 43.5913C26.8783 43.5913 26.5913 43.2261 26.5913 42.7826C26.5913 42.6783 26.6174 42.5739 26.6435 42.4957C26.4348 42.8348 26.1217 43.0696 25.7304 43.0957C25.7304 43.1478 25.7565 43.2 25.7565 43.2783C25.7565 44.0609 25.2348 44.6609 24.6087 44.6609C23.9826 44.6348 23.4609 44.0609 23.4609 43.3304C23.4609 42.6261 23.9826 42 24.6087 41.9478C24.6087 41.8957 24.5826 41.8435 24.5826 41.7913C24.5826 41.5826 24.6348 41.4 24.687 41.2174C24.113 41.2174 23.6435 40.7217 23.6435 40.0696C23.6435 39.3913 24.1391 38.7652 24.713 38.6609C24.8174 38.6348 24.9217 38.6348 25 38.6609C25.0261 38.4783 25.0522 38.2957 25.1565 38.1391C25.0522 38.2174 24.9478 38.2957 24.8174 38.2957C24.4522 38.3739 24.1652 38.087 24.1652 37.6696C24.1652 37.4087 24.2957 37.1478 24.4522 36.9652C24.0348 36.913 23.7217 36.5217 23.7217 36C23.7217 35.3478 24.1913 34.6435 24.7652 34.4609C25.3391 34.2783 25.8087 34.6957 25.8087 35.4261C25.8087 35.9739 25.5217 36.5217 25.1304 36.7826C25.313 36.887 25.4435 37.0957 25.4435 37.3826C25.4435 37.513 25.4174 37.6435 25.3652 37.7478C25.5217 37.5652 25.7043 37.4609 25.9391 37.4087C26.4609 37.3043 26.9043 37.7478 26.9043 38.4261C26.9043 39.1043 26.4609 39.7043 25.9391 39.7826C25.887 39.7826 25.8348 39.7826 25.7565 39.7826C25.7565 39.9652 25.7304 40.1217 25.6783 40.2783C25.887 40.2522 26.0696 40.3043 26.2522 40.4087C26.2783 39.9913 26.5652 39.6261 26.9043 39.5739C27.2696 39.5217 27.5565 39.8609 27.5565 40.3304C27.5565 40.8 27.2696 41.1913 26.9043 41.2174C26.8522 41.2174 26.8261 41.2174 26.7739 41.2174C26.8 41.3217 26.8261 41.4522 26.8261 41.5826C26.8261 41.8174 26.7739 42.0261 26.6957 42.2087C26.8261 42.0261 26.9826 41.8957 27.1913 41.8957C27.5565 41.8696 27.8435 42.2348 27.8435 42.7043C27.8957 43.2 27.6087 43.5913 27.2435 43.5913Z" fill="#682682"/>
<path d="M42.9992 33.9652L32.434 30.1565C32.1209 30.0522 31.8079 30 31.4688 30V57C31.8079 57 32.1209 56.9478 32.434 56.8435L42.9731 52.6957C43.4948 52.487 43.9383 51.913 43.9383 51.4174V35.2174C43.9383 34.7217 43.5209 34.1739 42.9992 33.9652ZM41.0166 44.5304C40.9905 44.6348 40.6514 45.0261 40.4948 45.0522H40.4427C40.3644 45.0261 40.2601 44.9478 40.2601 44.8435C40.2601 44.8174 40.1818 44.7913 40.1818 44.7913C40.1296 44.7913 40.0774 44.7652 40.0514 44.713C39.9992 44.6087 40.0514 44.4783 40.0514 44.4522C40.0514 44.4261 40.0514 44.3217 40.0514 44.2435C40.0514 44.1652 40.0514 44.087 40.0774 44.0348C40.1035 43.9304 40.1557 43.8261 40.2079 43.7478C40.234 43.7217 40.2601 43.6435 40.2601 43.6435C40.2861 43.4087 40.234 43.2261 40.1557 42.9913C40.0774 42.7043 39.947 42.3391 39.9731 41.8174C39.9731 41.6609 39.8948 41.4783 39.8166 41.2435C39.7644 41.0348 39.6861 40.8 39.6079 40.513C39.5818 40.6696 39.5557 40.8261 39.5296 40.9826C39.4774 41.4783 39.4514 42 39.4774 42.4957C39.4774 42.6783 39.5035 43.0174 39.5557 43.487C39.634 44.5565 39.7383 46.1478 39.8166 47.4C39.8948 49.0174 39.9731 50.5304 39.9992 50.6087C40.0253 50.6348 40.1557 50.687 40.2601 50.7391C40.4166 50.8174 40.6253 50.8957 40.7296 51C40.834 51.1043 40.834 51.2348 40.8079 51.313C40.7818 51.3652 40.7296 51.4696 40.547 51.5478L40.4948 51.5739C40.3644 51.6261 39.9992 51.7044 39.6601 51.6261C39.6079 51.6 39.5557 51.5739 39.5296 51.5478C39.4774 51.4957 39.4514 51.4696 39.347 51.4957C38.5644 51.5739 38.4601 47.9478 38.4601 47.8957C38.4601 47.6609 38.1731 46.1478 37.9383 45.0783C37.7035 46.2 37.4166 47.8435 37.4166 48.0783C37.4166 48.1043 37.3122 51.913 36.5557 52.2783C36.4253 52.3304 36.3992 52.3826 36.3731 52.4609C36.347 52.513 36.2948 52.5913 36.2427 52.6435C35.9035 52.9565 35.5383 53.087 35.4079 53.113H35.3557C35.1731 53.1652 35.1209 53.087 35.0948 53.0348C35.0688 52.9565 35.0427 52.8522 35.1731 52.6435C35.3035 52.4348 35.4861 52.2261 35.6427 52.0435C35.747 51.9391 35.9035 51.7826 35.9296 51.7043C35.9296 51.6522 36.0079 49.9304 36.0861 48.0783C36.1383 46.6696 36.2687 44.8957 36.347 43.7217C36.3731 43.2261 36.3992 42.8348 36.4253 42.6522C36.4514 42.1304 36.4514 41.5304 36.3731 41.0087C36.347 40.8261 36.3209 40.6435 36.2948 40.487C36.2166 40.8 36.1644 41.0609 36.0861 41.2957C36.0079 41.5565 35.9557 41.7652 35.9296 41.9739C35.9557 42.5478 35.8514 42.9652 35.747 43.3043C35.6688 43.5913 35.6166 43.8 35.6427 44.0609C35.6427 44.087 35.6948 44.1391 35.6948 44.1652C35.747 44.2696 35.8253 44.3739 35.8253 44.4783C35.8253 44.5304 35.8253 44.6087 35.8514 44.713C35.8514 44.7913 35.8514 44.9217 35.8774 44.9478C35.8774 44.9739 35.9296 45.1044 35.8774 45.2348L35.8514 45.313L35.747 45.3391C35.7209 45.3391 35.6687 45.3913 35.6687 45.4174C35.6687 45.5478 35.5644 45.6522 35.4861 45.6783L35.4079 45.7043C35.2253 45.7304 34.9122 45.3652 34.8861 45.2348C34.8601 45.1565 34.8601 45.0261 34.9122 44.2957C34.9122 44.1913 34.9122 44.113 34.9383 44.087V43.8261C34.9122 43.2261 34.9122 42.4957 35.0166 41.4522C35.0687 40.9304 35.147 40.4348 35.2514 40.0174C35.3035 39.7565 35.3557 39.5217 35.3818 39.3391C35.5644 38.1652 35.8253 38.0087 36.0861 37.8261C36.1122 37.8 36.1383 37.7739 36.1905 37.7739C36.3209 37.6696 36.634 37.5913 36.9209 37.487C37.0774 37.4348 37.2861 37.3826 37.3122 37.3565C37.4166 37.2783 37.4166 37.2522 37.4166 37.0435V36.8087C37.3905 36.6783 37.2861 36.3913 37.2601 36.287C37.1035 36.0783 37.0514 35.8435 37.0774 35.713C37.0774 35.6609 37.0774 35.6348 37.0774 35.6087C37.0514 35.3478 37.0774 35.2435 37.1296 35.0348C37.234 34.5652 37.5731 34.3043 38.0166 34.3826C38.434 34.4609 38.7731 34.8261 38.8774 35.3217C38.9296 35.5304 38.9296 35.6348 38.9296 35.8696C38.9296 35.8957 38.9296 35.9217 38.9296 35.9478C38.9557 36.1043 38.9035 36.313 38.747 36.4696C38.7209 36.5478 38.6166 36.8087 38.5905 36.9391C38.5905 36.9913 38.5905 37.0174 38.5905 37.0696C38.5905 37.2522 38.5905 37.3043 38.6948 37.3826C38.7209 37.4087 38.9296 37.513 39.0861 37.5913C39.3731 37.7478 39.6861 37.8783 39.8166 37.9826C39.8427 38.0087 39.8688 38.0348 39.9209 38.0609C40.1818 38.2696 40.4427 38.4522 40.6253 39.4957C40.6514 39.6783 40.7035 39.887 40.7557 40.0957C40.834 40.4609 40.9383 40.8783 40.9905 41.3478C41.1209 42.2348 41.0948 42.8609 41.0688 43.3565V43.5913C41.0688 43.5913 41.0688 43.6696 41.0948 43.7478C41.0166 44.3478 41.0166 44.4783 41.0166 44.5304Z" fill="#F28A48"/>
<defs>
<linearGradient id="paint0_linear_13660_6590" x1="315.899" y1="93.6531" x2="315.899" y2="-23.4113" gradientUnits="userSpaceOnUse">
<stop stop-color="#EFEFEF"/>
<stop offset="1" stop-color="#EFEFEF" stop-opacity="0"/>
</linearGradient>
<linearGradient id="paint1_linear_13660_6590" x1="223.649" y1="93.6531" x2="223.649" y2="-23.4113" gradientUnits="userSpaceOnUse">
<stop stop-color="#EFEFEF"/>
<stop offset="1" stop-color="#EFEFEF" stop-opacity="0"/>
</linearGradient>
<linearGradient id="paint2_linear_13660_6590" x1="85.2584" y1="93.6531" x2="85.2579" y2="-23.4113" gradientUnits="userSpaceOnUse">
<stop stop-color="#EFEFEF"/>
<stop offset="1" stop-color="#EFEFEF" stop-opacity="0"/>
</linearGradient>
<linearGradient id="paint3_linear_13660_6590" x1="269.774" y1="93.6531" x2="269.774" y2="-23.4113" gradientUnits="userSpaceOnUse">
<stop stop-color="#EFEFEF"/>
<stop offset="1" stop-color="#EFEFEF" stop-opacity="0"/>
</linearGradient>
<linearGradient id="paint4_linear_13660_6590" x1="131.391" y1="93.6531" x2="131.391" y2="-23.4113" gradientUnits="userSpaceOnUse">
<stop stop-color="#EFEFEF"/>
<stop offset="1" stop-color="#EFEFEF" stop-opacity="0"/>
</linearGradient>
<linearGradient id="paint5_linear_13660_6590" x1="177.516" y1="93.6531" x2="177.516" y2="-23.4113" gradientUnits="userSpaceOnUse">
<stop stop-color="#EFEFEF"/>
<stop offset="1" stop-color="#EFEFEF" stop-opacity="0"/>
</linearGradient>
<linearGradient id="paint6_linear_13660_6590" x1="39.1412" y1="93.6531" x2="39.1407" y2="-23.4113" gradientUnits="userSpaceOnUse">
<stop stop-color="#EFEFEF"/>
<stop offset="1" stop-color="#EFEFEF" stop-opacity="0"/>
</linearGradient>
<linearGradient id="paint7_linear_13660_6590" x1="153.048" y1="79.6904" x2="215.872" y2="182.836" gradientUnits="userSpaceOnUse">
<stop stop-color="#6C60FF"/>
<stop offset="0.546875" stop-color="#6C60FF" stop-opacity="0"/>
</linearGradient>
</defs>
</svg>
