<svg width="500" height="339" viewBox="0 0 500 339" fill="none" xmlns="http://www.w3.org/2000/svg">
<rect x="0.5" y="12.5" width="499" height="314" rx="4.5" fill="white" stroke="#EDEDED"/>
<rect x="1" y="49" width="498" height="35" fill="#F8F8F8"/>
<rect x="1" y="138" width="498" height="55" fill="#F8F8F8"/>
<rect x="1" y="247" width="498" height="35" fill="#F8F8F8"/>
<path d="M21.596 70.096C19.376 70.096 17.42 68.644 17.42 65.8C17.42 62.956 19.412 61.504 21.596 61.504C23.612 61.504 25.04 62.608 25.328 64.3L23.708 64.636C23.492 63.568 22.676 62.908 21.596 62.908C20.18 62.908 19.076 63.916 19.076 65.8C19.076 67.684 20.168 68.68 21.596 68.68C22.688 68.68 23.444 68.08 23.66 67.096L25.304 67.456C24.896 69.1 23.528 70.096 21.596 70.096ZM29.3296 70.096C27.4936 70.096 26.1736 68.776 26.1736 66.976C26.1736 65.176 27.4936 63.856 29.3296 63.856C31.1656 63.856 32.4856 65.176 32.4856 66.976C32.4856 68.776 31.1656 70.096 29.3296 70.096ZM29.3296 68.788C30.3016 68.788 30.9616 68.056 30.9616 66.976C30.9616 65.896 30.3016 65.164 29.3296 65.164C28.3456 65.164 27.6976 65.896 27.6976 66.976C27.6976 68.056 28.3456 68.788 29.3296 68.788ZM33.6226 70V61.504H35.1346V70H33.6226ZM36.5992 70V61.504H38.1112V70H36.5992ZM41.9038 63.856C43.4878 63.856 44.5678 64.708 44.5678 66.316V70H43.1038V69.124C42.7678 69.712 42.0358 70.096 41.2918 70.096C40.1038 70.096 39.2758 69.328 39.2758 68.296C39.2758 67.108 40.1758 66.472 41.9758 66.28L43.1038 66.172V66.112C43.1038 65.428 42.6358 65.008 41.9038 65.008C41.2438 65.008 40.7758 65.416 40.7038 66.064L39.3598 65.824C39.5518 64.624 40.6198 63.856 41.9038 63.856ZM41.6278 68.98C42.5638 68.98 43.1038 68.272 43.1038 67.384V67.252L41.9518 67.384C41.1478 67.48 40.7398 67.816 40.7398 68.248C40.7398 68.668 41.0758 68.98 41.6278 68.98ZM49.2845 70.096C48.5405 70.096 47.8565 69.784 47.5565 69.304V70H46.0445V61.504H47.5565V64.624C47.9045 64.168 48.5525 63.856 49.3085 63.856C51.0965 63.856 52.1645 65.128 52.1645 66.976C52.1645 68.824 51.0965 70.096 49.2845 70.096ZM49.0685 68.788C50.0285 68.788 50.6645 68.068 50.6645 66.976C50.6645 65.884 50.0285 65.164 49.0685 65.164C48.0965 65.164 47.4605 65.884 47.4605 66.976C47.4605 68.068 48.0965 68.788 49.0685 68.788ZM56.1421 70.096C54.3061 70.096 52.9861 68.776 52.9861 66.976C52.9861 65.176 54.3061 63.856 56.1421 63.856C57.9781 63.856 59.2981 65.176 59.2981 66.976C59.2981 68.776 57.9781 70.096 56.1421 70.096ZM56.1421 68.788C57.1141 68.788 57.7741 68.056 57.7741 66.976C57.7741 65.896 57.1141 65.164 56.1421 65.164C55.1581 65.164 54.5101 65.896 54.5101 66.976C54.5101 68.056 55.1581 68.788 56.1421 68.788ZM64.3351 65.416C64.1191 65.32 63.8311 65.272 63.5671 65.272C62.7151 65.272 61.9471 65.98 61.9471 67.78V70H60.4351V63.952H61.9471V65.056C62.2471 64.372 63.0391 63.856 63.7711 63.856C63.9871 63.856 64.2511 63.892 64.4311 63.952L64.3351 65.416ZM67.4741 63.856C69.0581 63.856 70.1381 64.708 70.1381 66.316V70H68.6741V69.124C68.3381 69.712 67.6061 70.096 66.8621 70.096C65.6741 70.096 64.8461 69.328 64.8461 68.296C64.8461 67.108 65.7461 66.472 67.5461 66.28L68.6741 66.172V66.112C68.6741 65.428 68.2061 65.008 67.4741 65.008C66.8141 65.008 66.3461 65.416 66.2741 66.064L64.9301 65.824C65.1221 64.624 66.1901 63.856 67.4741 63.856ZM67.1981 68.98C68.1341 68.98 68.6741 68.272 68.6741 67.384V67.252L67.5221 67.384C66.7181 67.48 66.3101 67.816 66.3101 68.248C66.3101 68.668 66.6461 68.98 67.1981 68.98ZM75.0973 69.94C74.7973 70.048 74.4733 70.096 74.1253 70.096C72.9013 70.096 71.9893 69.436 71.9893 68.02V65.224H70.9693V63.952H71.9893V62.176H73.5013V63.952H75.0253V65.224H73.5013V67.876C73.5013 68.452 73.8133 68.764 74.2813 68.764C74.5093 68.764 74.7733 68.728 74.9893 68.62L75.0973 69.94ZM76.8943 63.028C76.3543 63.028 75.9583 62.62 75.9583 62.092C75.9583 61.576 76.3543 61.168 76.8943 61.168C77.4463 61.168 77.8543 61.576 77.8543 62.092C77.8543 62.62 77.4463 63.028 76.8943 63.028ZM76.1383 70V63.952H77.6503V70H76.1383ZM81.9468 70.096C80.1108 70.096 78.7908 68.776 78.7908 66.976C78.7908 65.176 80.1108 63.856 81.9468 63.856C83.7828 63.856 85.1028 65.176 85.1028 66.976C85.1028 68.776 83.7828 70.096 81.9468 70.096ZM81.9468 68.788C82.9188 68.788 83.5788 68.056 83.5788 66.976C83.5788 65.896 82.9188 65.164 81.9468 65.164C80.9628 65.164 80.3148 65.896 80.3148 66.976C80.3148 68.056 80.9628 68.788 81.9468 68.788ZM86.2398 70V63.952H87.7518V64.864C88.1358 64.276 88.8198 63.856 89.6718 63.856C90.9918 63.856 91.8798 64.72 91.8798 66.04V70H90.3678V66.4C90.3678 65.692 89.9238 65.2 89.2158 65.2C88.2918 65.2 87.7518 65.992 87.7518 67.348V70H86.2398Z" fill="black"/>
<path d="M247.175 34H246.031L243.897 30.568H242.192V34H241.191V26.3H243.963C245.426 26.3 246.383 27.147 246.383 28.434C246.383 29.38 245.844 30.106 244.953 30.414L247.175 34ZM242.192 27.191V29.666H243.853C244.799 29.666 245.36 29.215 245.36 28.434C245.36 27.653 244.799 27.191 243.853 27.191H242.192ZM252.834 30.975C252.834 31.107 252.823 31.305 252.812 31.404H248.434C248.5 32.526 249.204 33.263 250.205 33.263C251.052 33.263 251.635 32.867 251.8 32.174L252.68 32.383C252.405 33.461 251.481 34.088 250.205 34.088C248.544 34.088 247.499 32.801 247.499 31.228C247.499 29.655 248.511 28.368 250.183 28.368C251.822 28.368 252.834 29.545 252.834 30.975ZM248.489 30.623H251.844C251.756 29.776 251.162 29.149 250.183 29.149C249.314 29.149 248.676 29.699 248.489 30.623ZM256.392 34.088C254.665 34.088 253.719 32.856 253.719 31.228C253.719 29.6 254.665 28.368 256.381 28.368C257.118 28.368 257.844 28.731 258.196 29.248V26.212H259.131V34H258.196V33.197C257.943 33.703 257.206 34.088 256.392 34.088ZM256.48 33.252C257.569 33.252 258.284 32.449 258.284 31.228C258.284 30.007 257.569 29.204 256.48 29.204C255.391 29.204 254.676 30.007 254.676 31.228C254.676 32.449 255.391 33.252 256.48 33.252ZM260.688 34V26.3H263.471C264.923 26.3 265.825 27.026 265.825 28.28C265.825 28.995 265.33 29.567 264.813 29.787C265.594 30.062 266.166 30.678 266.166 31.756C266.166 33.142 265.22 34 263.636 34H260.688ZM261.678 29.468H263.427C264.34 29.468 264.835 29.083 264.835 28.313C264.835 27.543 264.34 27.158 263.427 27.158H261.678V29.468ZM261.678 33.098H263.471C264.593 33.098 265.165 32.625 265.165 31.734C265.165 30.832 264.593 30.348 263.471 30.348H261.678V33.098ZM270.625 29.369C270.416 29.281 270.152 29.237 269.91 29.237C269.03 29.237 268.315 30.084 268.315 31.888V34H267.38V28.456H268.315V29.578C268.634 28.874 269.36 28.368 270.042 28.368C270.273 28.368 270.493 28.401 270.68 28.467L270.625 29.369ZM271.525 26.212H272.603V27.4H271.525V26.212ZM271.591 34V28.456H272.526V34H271.591ZM276.471 34.088C274.821 34.088 273.721 32.944 273.721 31.228C273.721 29.512 274.821 28.368 276.471 28.368C277.758 28.368 278.704 29.072 278.902 30.172L277.978 30.359C277.857 29.688 277.274 29.204 276.493 29.204C275.404 29.204 274.7 30.007 274.7 31.228C274.7 32.449 275.404 33.252 276.493 33.252C277.274 33.252 277.846 32.823 278 32.086L278.913 32.273C278.671 33.417 277.747 34.088 276.471 34.088ZM283.85 34L281.76 31.272L281.023 31.943V34H280.077V26.212H281.023V30.711L283.586 28.456H284.829L282.453 30.645L285.016 34H283.85ZM293.887 34L293.128 32.042H289.707L288.948 34H287.914L290.961 26.3H291.874L294.932 34H293.887ZM290.048 31.151H292.787L291.423 27.62L290.048 31.151ZM295.815 34V26.3H296.816V34H295.815Z" fill="black"/>
<path d="M366.412 34.088C364.894 34.088 363.805 33.208 363.662 31.866L364.608 31.723C364.718 32.614 365.433 33.186 366.412 33.186C367.479 33.186 368.172 32.548 368.172 31.58C368.172 30.579 367.534 29.996 366.467 29.996C366.181 29.996 365.862 30.084 365.62 30.238L365.191 29.6L367.622 27.191H363.882V26.3H368.799V27.169L366.61 29.303C368.128 29.16 369.206 30.084 369.206 31.602C369.206 33.087 368.106 34.088 366.412 34.088ZM370.474 34V26.3H372.762C374.918 26.3 376.623 27.675 376.623 30.15C376.623 32.625 374.918 34 372.762 34H370.474ZM371.464 33.098H372.729C374.214 33.098 375.589 32.251 375.589 30.15C375.589 28.049 374.214 27.191 372.729 27.191H371.464V33.098ZM382.971 34.088C381.486 34.088 380.298 33.131 380.045 31.723L380.991 31.415C381.145 32.493 381.97 33.197 382.993 33.197C384.049 33.197 384.731 32.702 384.731 31.932C384.731 29.875 380.353 30.953 380.353 28.225C380.353 27.026 381.431 26.212 382.949 26.212C384.357 26.212 385.446 26.971 385.644 28.115L384.731 28.467C384.577 27.631 383.917 27.103 382.949 27.103C381.959 27.103 381.365 27.532 381.365 28.225C381.365 29.985 385.765 28.841 385.765 31.921C385.765 33.23 384.654 34.088 382.971 34.088ZM386.93 34V26.212H387.865V34H386.93ZM389.314 26.212H390.392V27.4H389.314V26.212ZM389.38 34V28.456H390.315V34H389.38ZM394.26 34.088C392.61 34.088 391.51 32.944 391.51 31.228C391.51 29.512 392.61 28.368 394.26 28.368C395.547 28.368 396.493 29.072 396.691 30.172L395.767 30.359C395.646 29.688 395.063 29.204 394.282 29.204C393.193 29.204 392.489 30.007 392.489 31.228C392.489 32.449 393.193 33.252 394.282 33.252C395.063 33.252 395.635 32.823 395.789 32.086L396.702 32.273C396.46 33.417 395.536 34.088 394.26 34.088ZM402.882 30.975C402.882 31.107 402.871 31.305 402.86 31.404H398.482C398.548 32.526 399.252 33.263 400.253 33.263C401.1 33.263 401.683 32.867 401.848 32.174L402.728 32.383C402.453 33.461 401.529 34.088 400.253 34.088C398.592 34.088 397.547 32.801 397.547 31.228C397.547 29.655 398.559 28.368 400.231 28.368C401.87 28.368 402.882 29.545 402.882 30.975ZM398.537 30.623H401.892C401.804 29.776 401.21 29.149 400.231 29.149C399.362 29.149 398.724 29.699 398.537 30.623ZM407.331 29.369C407.122 29.281 406.858 29.237 406.616 29.237C405.736 29.237 405.021 30.084 405.021 31.888V34H404.086V28.456H405.021V29.578C405.34 28.874 406.066 28.368 406.748 28.368C406.979 28.368 407.199 28.401 407.386 28.467L407.331 29.369ZM415.9 29.919V30.744H413.645V32.999H412.831V30.744H410.565V29.919H412.82V27.664H413.634V29.919H415.9ZM419.727 34V26.3H420.728V34H419.727ZM424.175 34V27.191H421.722V26.3H427.618V27.191H425.176V34H424.175ZM433.397 34L430.614 30.062L429.591 31.118V34H428.59V26.3H429.591V29.787L432.957 26.3H434.288L431.318 29.358L434.607 34H433.397ZM440.603 34.088C439.118 34.088 437.93 33.131 437.677 31.723L438.623 31.415C438.777 32.493 439.602 33.197 440.625 33.197C441.681 33.197 442.363 32.702 442.363 31.932C442.363 29.875 437.985 30.953 437.985 28.225C437.985 27.026 439.063 26.212 440.581 26.212C441.989 26.212 443.078 26.971 443.276 28.115L442.363 28.467C442.209 27.631 441.549 27.103 440.581 27.103C439.591 27.103 438.997 27.532 438.997 28.225C438.997 29.985 443.397 28.841 443.397 31.921C443.397 33.23 442.286 34.088 440.603 34.088ZM444.562 34V28.456H445.497V29.501C445.882 28.841 446.553 28.368 447.4 28.368C448.555 28.368 449.38 29.149 449.38 30.326V34H448.445V30.502C448.445 29.754 447.972 29.215 447.191 29.215C446.157 29.215 445.497 30.106 445.497 31.569V34H444.562ZM452.968 28.368C454.31 28.368 455.245 29.16 455.245 30.447V34H454.321V33.054C454.002 33.692 453.276 34.088 452.473 34.088C451.362 34.088 450.603 33.406 450.603 32.449C450.603 31.382 451.472 30.799 453.243 30.623L454.321 30.502V30.392C454.321 29.633 453.782 29.149 452.968 29.149C452.209 29.149 451.67 29.6 451.593 30.348L450.724 30.183C450.889 29.083 451.802 28.368 452.968 28.368ZM452.616 33.318C453.694 33.318 454.321 32.603 454.321 31.492V31.228L453.243 31.349C452.121 31.47 451.538 31.855 451.538 32.438C451.538 32.955 451.978 33.318 452.616 33.318ZM456.765 36.002V28.456H457.7V29.259C457.997 28.753 458.723 28.368 459.526 28.368C461.231 28.368 462.177 29.6 462.177 31.228C462.177 32.856 461.209 34.088 459.504 34.088C458.8 34.088 458.074 33.736 457.7 33.23V36.002H456.765ZM459.416 33.252C460.516 33.252 461.231 32.449 461.231 31.228C461.231 30.007 460.516 29.204 459.416 29.204C458.338 29.204 457.623 30.007 457.623 31.228C457.623 32.449 458.338 33.252 459.416 33.252Z" fill="black"/>
<path d="M20.552 105.096C18.896 105.096 17.516 103.98 17.312 102.456L18.764 102.012C18.896 103.02 19.676 103.704 20.612 103.704C21.488 103.704 22.064 103.284 22.064 102.648C22.064 100.836 17.612 101.856 17.612 98.808C17.612 97.464 18.872 96.504 20.528 96.504C22.124 96.504 23.384 97.356 23.648 98.628L22.184 99.228C22.016 98.412 21.404 97.896 20.528 97.896C19.724 97.896 19.232 98.244 19.232 98.808C19.232 100.332 23.72 99.204 23.72 102.612C23.72 104.1 22.448 105.096 20.552 105.096ZM24.8818 105V96.6H27.6298C29.9458 96.6 31.9378 97.98 31.9378 100.8C31.9378 103.62 29.9458 105 27.6298 105H24.8818ZM26.4898 103.584H27.4858C28.9258 103.584 30.2818 102.852 30.2818 100.8C30.2818 98.748 28.9258 98.004 27.4858 98.004H26.4898V103.584ZM38.3273 105L35.7113 101.136L34.7873 102.084V105H33.1553V96.6H34.7873V99.924L37.9193 96.6H40.0673L36.8273 99.96L40.3673 105H38.3273ZM46.8726 105.096C45.0366 105.096 43.7166 103.776 43.7166 101.976C43.7166 100.176 45.0366 98.856 46.8726 98.856C48.7086 98.856 50.0286 100.176 50.0286 101.976C50.0286 103.776 48.7086 105.096 46.8726 105.096ZM46.8726 103.788C47.8446 103.788 48.5046 103.056 48.5046 101.976C48.5046 100.896 47.8446 100.164 46.8726 100.164C45.8886 100.164 45.2406 100.896 45.2406 101.976C45.2406 103.056 45.8886 103.788 46.8726 103.788ZM55.0656 100.416C54.8496 100.32 54.5616 100.272 54.2976 100.272C53.4456 100.272 52.6776 100.98 52.6776 102.78V105H51.1656V98.952H52.6776V100.056C52.9776 99.372 53.7696 98.856 54.5016 98.856C54.7176 98.856 54.9816 98.892 55.1616 98.952L55.0656 100.416ZM64.5754 105L63.8914 103.14H60.6394L59.9554 105H58.2754L61.5034 96.6H63.0274L66.2554 105H64.5754ZM61.1554 101.76H63.3874L62.2714 98.736L61.1554 101.76ZM67.0696 105V96.6H70.4536C72.1576 96.6 73.2496 97.608 73.2496 99.168C73.2496 100.716 72.1576 101.724 70.4536 101.724H68.7016V105H67.0696ZM68.7016 100.32H70.3096C71.1256 100.32 71.6176 99.888 71.6176 99.168C71.6176 98.436 71.1256 98.004 70.3096 98.004H68.7016V100.32ZM74.2764 105V96.6H75.9084V105H74.2764ZM80.8381 105V100.224H79.8661V98.952H80.8381V98.484C80.8381 97.068 81.7501 96.3 82.9741 96.3C83.2861 96.3 83.5981 96.348 83.8861 96.432L83.7781 97.68C83.5741 97.596 83.3701 97.56 83.1781 97.56C82.6741 97.56 82.3501 97.92 82.3501 98.484V98.952H83.7901V100.224H82.3501V105H80.8381ZM87.3609 105.096C85.5249 105.096 84.2049 103.776 84.2049 101.976C84.2049 100.176 85.5249 98.856 87.3609 98.856C89.1969 98.856 90.5169 100.176 90.5169 101.976C90.5169 103.776 89.1969 105.096 87.3609 105.096ZM87.3609 103.788C88.3329 103.788 88.9929 103.056 88.9929 101.976C88.9929 100.896 88.3329 100.164 87.3609 100.164C86.3769 100.164 85.7289 100.896 85.7289 101.976C85.7289 103.056 86.3769 103.788 87.3609 103.788ZM95.5539 100.416C95.3379 100.32 95.0499 100.272 94.7859 100.272C93.9339 100.272 93.1659 100.98 93.1659 102.78V105H91.6539V98.952H93.1659V100.056C93.4659 99.372 94.2579 98.856 94.9899 98.856C95.2059 98.856 95.4699 98.892 95.6499 98.952L95.5539 100.416ZM100.168 98.028C99.6277 98.028 99.2317 97.62 99.2317 97.092C99.2317 96.576 99.6277 96.168 100.168 96.168C100.72 96.168 101.128 96.576 101.128 97.092C101.128 97.62 100.72 98.028 100.168 98.028ZM99.4117 105V98.952H100.924V105H99.4117ZM102.388 105V98.952H103.9V99.864C104.284 99.276 104.968 98.856 105.82 98.856C107.14 98.856 108.028 99.72 108.028 101.04V105H106.516V101.4C106.516 100.692 106.072 100.2 105.364 100.2C104.44 100.2 103.9 100.992 103.9 102.348V105H102.388ZM112.879 104.94C112.579 105.048 112.255 105.096 111.907 105.096C110.683 105.096 109.771 104.436 109.771 103.02V100.224H108.751V98.952H109.771V97.176H111.283V98.952H112.807V100.224H111.283V102.876C111.283 103.452 111.595 103.764 112.063 103.764C112.291 103.764 112.555 103.728 112.771 103.62L112.879 104.94ZM119.502 101.772C119.502 101.988 119.49 102.252 119.478 102.372H114.99C115.122 103.284 115.71 103.824 116.574 103.824C117.282 103.824 117.786 103.488 117.942 102.9L119.358 103.284C119.022 104.424 117.966 105.096 116.55 105.096C114.546 105.096 113.478 103.548 113.478 101.976C113.478 100.404 114.462 98.856 116.466 98.856C118.506 98.856 119.502 100.368 119.502 101.772ZM115.026 101.268H117.882C117.81 100.548 117.342 100.008 116.466 100.008C115.722 100.008 115.194 100.452 115.026 101.268ZM124.81 98.952H126.31V104.616C126.31 106.212 125.11 107.28 123.31 107.28C121.894 107.28 120.754 106.524 120.55 105.396L121.954 105.168C122.026 105.732 122.602 106.068 123.31 106.068C124.222 106.068 124.822 105.552 124.822 104.772V104.112C124.522 104.544 123.862 104.82 123.142 104.82C121.366 104.82 120.322 103.62 120.322 101.844C120.322 100.056 121.366 98.856 123.106 98.856C123.85 98.856 124.474 99.144 124.81 99.564V98.952ZM123.358 103.512C124.294 103.512 124.906 102.852 124.906 101.844C124.906 100.824 124.294 100.164 123.358 100.164C122.434 100.164 121.822 100.824 121.822 101.844C121.822 102.852 122.434 103.512 123.358 103.512ZM131.683 100.416C131.467 100.32 131.179 100.272 130.915 100.272C130.063 100.272 129.295 100.98 129.295 102.78V105H127.783V98.952H129.295V100.056C129.595 99.372 130.387 98.856 131.119 98.856C131.335 98.856 131.599 98.892 131.779 98.952L131.683 100.416ZM134.822 98.856C136.406 98.856 137.486 99.708 137.486 101.316V105H136.022V104.124C135.686 104.712 134.954 105.096 134.21 105.096C133.022 105.096 132.194 104.328 132.194 103.296C132.194 102.108 133.094 101.472 134.894 101.28L136.022 101.172V101.112C136.022 100.428 135.554 100.008 134.822 100.008C134.162 100.008 133.694 100.416 133.622 101.064L132.278 100.824C132.47 99.624 133.538 98.856 134.822 98.856ZM134.546 103.98C135.482 103.98 136.022 103.272 136.022 102.384V102.252L134.87 102.384C134.066 102.48 133.658 102.816 133.658 103.248C133.658 103.668 133.994 103.98 134.546 103.98ZM142.445 104.94C142.145 105.048 141.821 105.096 141.473 105.096C140.249 105.096 139.337 104.436 139.337 103.02V100.224H138.317V98.952H139.337V97.176H140.849V98.952H142.373V100.224H140.849V102.876C140.849 103.452 141.161 103.764 141.629 103.764C141.857 103.764 142.121 103.728 142.337 103.62L142.445 104.94ZM144.242 98.028C143.702 98.028 143.306 97.62 143.306 97.092C143.306 96.576 143.702 96.168 144.242 96.168C144.794 96.168 145.202 96.576 145.202 97.092C145.202 97.62 144.794 98.028 144.242 98.028ZM143.486 105V98.952H144.998V105H143.486ZM146.462 105V98.952H147.974V99.864C148.358 99.276 149.042 98.856 149.894 98.856C151.214 98.856 152.102 99.72 152.102 101.04V105H150.59V101.4C150.59 100.692 150.146 100.2 149.438 100.2C148.514 100.2 147.974 100.992 147.974 102.348V105H146.462ZM157.728 98.952H159.228V104.616C159.228 106.212 158.028 107.28 156.228 107.28C154.812 107.28 153.672 106.524 153.468 105.396L154.872 105.168C154.944 105.732 155.52 106.068 156.228 106.068C157.14 106.068 157.74 105.552 157.74 104.772V104.112C157.44 104.544 156.78 104.82 156.06 104.82C154.284 104.82 153.24 103.62 153.24 101.844C153.24 100.056 154.284 98.856 156.024 98.856C156.768 98.856 157.392 99.144 157.728 99.564V98.952ZM156.276 103.512C157.212 103.512 157.824 102.852 157.824 101.844C157.824 100.824 157.212 100.164 156.276 100.164C155.352 100.164 154.74 100.824 154.74 101.844C154.74 102.852 155.352 103.512 156.276 103.512ZM19.148 124L17.264 117.952H18.788L19.832 121.888L21.044 117.952H22.424L23.636 121.888L24.668 117.952H26.192L24.32 124H22.964L21.74 120.052L20.492 124H19.148ZM27.945 117.028C27.405 117.028 27.009 116.62 27.009 116.092C27.009 115.576 27.405 115.168 27.945 115.168C28.497 115.168 28.905 115.576 28.905 116.092C28.905 116.62 28.497 117.028 27.945 117.028ZM27.189 124V117.952H28.701V124H27.189ZM33.7536 123.94C33.4536 124.048 33.1296 124.096 32.7816 124.096C31.5576 124.096 30.6456 123.436 30.6456 122.02V119.224H29.6256V117.952H30.6456V116.176H32.1576V117.952H33.6816V119.224H32.1576V121.876C32.1576 122.452 32.4696 122.764 32.9376 122.764C33.1656 122.764 33.4296 122.728 33.6456 122.62L33.7536 123.94ZM35.0992 124V115.504H36.6112V118.888C37.0072 118.228 37.6912 117.856 38.5312 117.856C39.8872 117.856 40.7872 118.72 40.7872 120.04V124H39.2752V120.412C39.2752 119.668 38.8192 119.2 38.0752 119.2C37.1392 119.2 36.6112 120.004 36.6112 121.372V124H35.0992ZM45.1904 124V115.6H47.0264L49.5944 121.684L52.1624 115.6H53.9984V124H52.4624V118.636L50.2064 124H48.9824L46.7264 118.636V124H45.1904ZM55.585 124V115.6H57.217V122.584H61.117V124H55.585ZM65.6488 124.096C63.1888 124.096 61.3888 122.284 61.3888 119.8C61.3888 117.316 63.1888 115.504 65.6488 115.504C68.0968 115.504 69.8968 117.316 69.8968 119.8C69.8968 122.284 68.0968 124.096 65.6488 124.096ZM65.6488 122.68C67.1728 122.68 68.2528 121.468 68.2528 119.8C68.2528 118.132 67.1728 116.908 65.6488 116.908C64.1248 116.908 63.0328 118.132 63.0328 119.8C63.0328 121.468 64.1248 122.68 65.6488 122.68ZM71.0523 126.184V117.952H72.5643V118.648C72.9003 118.18 73.5603 117.856 74.3643 117.856C76.1043 117.856 77.1723 119.128 77.1723 120.976C77.1723 122.824 76.0323 124.096 74.2563 124.096C73.5603 124.096 72.9123 123.832 72.5643 123.4V126.184H71.0523ZM74.0763 122.788C75.0363 122.788 75.6723 122.068 75.6723 120.976C75.6723 119.884 75.0363 119.164 74.0763 119.164C73.1043 119.164 72.4683 119.884 72.4683 120.976C72.4683 122.068 73.1043 122.788 74.0763 122.788ZM80.3713 124.096C78.9073 124.096 78.0313 123.196 77.7313 122.308L78.9673 121.804C79.1473 122.416 79.6153 122.92 80.3713 122.92C80.9353 122.92 81.3073 122.62 81.3073 122.236C81.3073 121.096 78.0073 121.84 78.0073 119.548C78.0073 118.6 78.8353 117.856 80.1553 117.856C81.3313 117.856 82.3273 118.456 82.5913 119.332L81.3673 119.848C81.1993 119.272 80.6713 118.972 80.1793 118.972C79.6993 118.972 79.3753 119.176 79.3753 119.524C79.3753 120.592 82.6993 119.74 82.6993 122.212C82.6993 123.256 81.7633 124.096 80.3713 124.096Z" fill="black"/>
<path d="M19.628 160L17.18 151.6H18.86L20.48 158.056L22.124 151.6H23.972L25.628 158.056L27.248 151.6H28.928L26.504 160H24.776L23.06 153.844L21.332 160H19.628ZM32.0601 160.096C30.2241 160.096 28.9041 158.776 28.9041 156.976C28.9041 155.176 30.2241 153.856 32.0601 153.856C33.8961 153.856 35.2161 155.176 35.2161 156.976C35.2161 158.776 33.8961 160.096 32.0601 160.096ZM32.0601 158.788C33.0321 158.788 33.6921 158.056 33.6921 156.976C33.6921 155.896 33.0321 155.164 32.0601 155.164C31.0761 155.164 30.4281 155.896 30.4281 156.976C30.4281 158.056 31.0761 158.788 32.0601 158.788ZM40.2531 155.416C40.0371 155.32 39.7491 155.272 39.4851 155.272C38.6331 155.272 37.8651 155.98 37.8651 157.78V160H36.3531V153.952H37.8651V155.056C38.1651 154.372 38.9571 153.856 39.6891 153.856C39.9051 153.856 40.1691 153.892 40.3491 153.952L40.2531 155.416ZM45.3201 160L43.4601 157.336L42.7521 158.032V160H41.2281V151.504H42.7521V156.1L45.0321 153.952H46.9521L44.4921 156.34L47.1441 160H45.3201ZM48.4827 160V155.224H47.5107V153.952H48.4827V153.484C48.4827 152.068 49.3947 151.3 50.6187 151.3C50.9307 151.3 51.2427 151.348 51.5307 151.432L51.4227 152.68C51.2187 152.596 51.0147 152.56 50.8227 152.56C50.3187 152.56 49.9947 152.92 49.9947 153.484V153.952H51.4347V155.224H49.9947V160H48.4827ZM55.0054 160.096C53.1694 160.096 51.8494 158.776 51.8494 156.976C51.8494 155.176 53.1694 153.856 55.0054 153.856C56.8414 153.856 58.1614 155.176 58.1614 156.976C58.1614 158.776 56.8414 160.096 55.0054 160.096ZM55.0054 158.788C55.9774 158.788 56.6374 158.056 56.6374 156.976C56.6374 155.896 55.9774 155.164 55.0054 155.164C54.0214 155.164 53.3734 155.896 53.3734 156.976C53.3734 158.056 54.0214 158.788 55.0054 158.788ZM63.1984 155.416C62.9824 155.32 62.6944 155.272 62.4304 155.272C61.5784 155.272 60.8104 155.98 60.8104 157.78V160H59.2984V153.952H60.8104V155.056C61.1104 154.372 61.9024 153.856 62.6344 153.856C62.8504 153.856 63.1144 153.892 63.2944 153.952L63.1984 155.416ZM66.7105 160.096C64.8985 160.096 63.6385 158.824 63.6385 156.976C63.6385 155.128 64.8985 153.856 66.7105 153.856C68.2585 153.856 69.3505 154.66 69.5545 155.944L68.0785 156.232C67.9705 155.596 67.4665 155.164 66.7585 155.164C65.8225 155.164 65.2105 155.872 65.2105 156.976C65.2105 158.08 65.8225 158.788 66.7585 158.788C67.4665 158.788 67.9345 158.404 68.0785 157.756L69.5545 158.056C69.3265 159.328 68.2345 160.096 66.7105 160.096ZM76.389 156.772C76.389 156.988 76.377 157.252 76.365 157.372H71.877C72.009 158.284 72.597 158.824 73.461 158.824C74.169 158.824 74.673 158.488 74.829 157.9L76.245 158.284C75.909 159.424 74.853 160.096 73.437 160.096C71.433 160.096 70.365 158.548 70.365 156.976C70.365 155.404 71.349 153.856 73.353 153.856C75.393 153.856 76.389 155.368 76.389 156.772ZM71.913 156.268H74.769C74.697 155.548 74.229 155.008 73.353 155.008C72.609 155.008 72.081 155.452 71.913 156.268ZM84.0036 159.94C83.7036 160.048 83.3796 160.096 83.0316 160.096C81.8076 160.096 80.8956 159.436 80.8956 158.02V155.224H79.8756V153.952H80.8956V152.176H82.4076V153.952H83.9316V155.224H82.4076V157.876C82.4076 158.452 82.7196 158.764 83.1876 158.764C83.4156 158.764 83.6796 158.728 83.8956 158.62L84.0036 159.94ZM88.9445 155.416C88.7285 155.32 88.4405 155.272 88.1765 155.272C87.3245 155.272 86.5565 155.98 86.5565 157.78V160H85.0445V153.952H86.5565V155.056C86.8565 154.372 87.6485 153.856 88.3805 153.856C88.5965 153.856 88.8605 153.892 89.0405 153.952L88.9445 155.416ZM92.0834 153.856C93.6674 153.856 94.7474 154.708 94.7474 156.316V160H93.2834V159.124C92.9474 159.712 92.2154 160.096 91.4714 160.096C90.2834 160.096 89.4554 159.328 89.4554 158.296C89.4554 157.108 90.3554 156.472 92.1554 156.28L93.2834 156.172V156.112C93.2834 155.428 92.8154 155.008 92.0834 155.008C91.4234 155.008 90.9554 155.416 90.8834 156.064L89.5394 155.824C89.7314 154.624 90.7994 153.856 92.0834 153.856ZM91.8074 158.98C92.7434 158.98 93.2834 158.272 93.2834 157.384V157.252L92.1314 157.384C91.3274 157.48 90.9194 157.816 90.9194 158.248C90.9194 158.668 91.2554 158.98 91.8074 158.98ZM98.9722 160.096C97.1602 160.096 95.9002 158.824 95.9002 156.976C95.9002 155.128 97.1602 153.856 98.9722 153.856C100.52 153.856 101.612 154.66 101.816 155.944L100.34 156.232C100.232 155.596 99.7282 155.164 99.0202 155.164C98.0842 155.164 97.4722 155.872 97.4722 156.976C97.4722 158.08 98.0842 158.788 99.0202 158.788C99.7282 158.788 100.196 158.404 100.34 157.756L101.816 158.056C101.588 159.328 100.496 160.096 98.9722 160.096ZM107.043 160L105.183 157.336L104.475 158.032V160H102.951V151.504H104.475V156.1L106.755 153.952H108.675L106.215 156.34L108.867 160H107.043ZM110.433 153.028C109.893 153.028 109.497 152.62 109.497 152.092C109.497 151.576 109.893 151.168 110.433 151.168C110.985 151.168 111.393 151.576 111.393 152.092C111.393 152.62 110.985 153.028 110.433 153.028ZM109.677 160V153.952H111.189V160H109.677ZM112.654 160V153.952H114.166V154.864C114.55 154.276 115.234 153.856 116.086 153.856C117.406 153.856 118.294 154.72 118.294 156.04V160H116.782V156.4C116.782 155.692 116.338 155.2 115.63 155.2C114.706 155.2 114.166 155.992 114.166 157.348V160H112.654ZM123.919 153.952H125.419V159.616C125.419 161.212 124.219 162.28 122.419 162.28C121.003 162.28 119.863 161.524 119.659 160.396L121.063 160.168C121.135 160.732 121.711 161.068 122.419 161.068C123.331 161.068 123.931 160.552 123.931 159.772V159.112C123.631 159.544 122.971 159.82 122.251 159.82C120.475 159.82 119.431 158.62 119.431 156.844C119.431 155.056 120.475 153.856 122.215 153.856C122.959 153.856 123.583 154.144 123.919 154.564V153.952ZM122.467 158.512C123.403 158.512 124.015 157.852 124.015 156.844C124.015 155.824 123.403 155.164 122.467 155.164C121.543 155.164 120.931 155.824 120.931 156.844C120.931 157.852 121.543 158.512 122.467 158.512ZM19.316 181.184C17.972 179.564 17.264 177.548 17.264 175.34C17.264 173.144 17.972 171.128 19.316 169.52L20.348 170.3C19.232 171.848 18.692 173.528 18.692 175.34C18.692 177.176 19.232 178.832 20.348 180.404L19.316 181.184ZM21.2359 181.184V172.952H22.7479V173.648C23.0839 173.18 23.7439 172.856 24.5479 172.856C26.2879 172.856 27.3559 174.128 27.3559 175.976C27.3559 177.824 26.2159 179.096 24.4399 179.096C23.7439 179.096 23.0959 178.832 22.7479 178.4V181.184H21.2359ZM24.2599 177.788C25.2199 177.788 25.8559 177.068 25.8559 175.976C25.8559 174.884 25.2199 174.164 24.2599 174.164C23.2879 174.164 22.6519 174.884 22.6519 175.976C22.6519 177.068 23.2879 177.788 24.2599 177.788ZM32.4015 174.416C32.1855 174.32 31.8975 174.272 31.6335 174.272C30.7815 174.272 30.0135 174.98 30.0135 176.78V179H28.5015V172.952H30.0135V174.056C30.3135 173.372 31.1055 172.856 31.8375 172.856C32.0535 172.856 32.3175 172.892 32.4975 172.952L32.4015 174.416ZM35.9976 179.096C34.1616 179.096 32.8416 177.776 32.8416 175.976C32.8416 174.176 34.1616 172.856 35.9976 172.856C37.8336 172.856 39.1536 174.176 39.1536 175.976C39.1536 177.776 37.8336 179.096 35.9976 179.096ZM35.9976 177.788C36.9696 177.788 37.6296 177.056 37.6296 175.976C37.6296 174.896 36.9696 174.164 35.9976 174.164C35.0136 174.164 34.3656 174.896 34.3656 175.976C34.3656 177.056 35.0136 177.788 35.9976 177.788ZM42.8466 179.096C41.0346 179.096 39.9666 177.824 39.9666 175.976C39.9666 174.128 41.0346 172.856 42.8226 172.856C43.5786 172.856 44.2266 173.168 44.5746 173.624V170.504H46.0866V179H44.5746V178.304C44.2746 178.784 43.6026 179.096 42.8466 179.096ZM43.0626 177.788C44.0346 177.788 44.6706 177.068 44.6706 175.976C44.6706 174.884 44.0346 174.164 43.0626 174.164C42.1026 174.164 41.4666 174.884 41.4666 175.976C41.4666 177.068 42.1026 177.788 43.0626 177.788ZM53.1962 172.952V179H51.6842V178.088C51.3002 178.676 50.6162 179.096 49.7642 179.096C48.4562 179.096 47.5562 178.232 47.5562 176.912V172.952H49.0682V176.552C49.0682 177.26 49.5122 177.752 50.2202 177.752C51.1562 177.752 51.6842 176.96 51.6842 175.604V172.952H53.1962ZM57.4175 179.096C55.6055 179.096 54.3455 177.824 54.3455 175.976C54.3455 174.128 55.6055 172.856 57.4175 172.856C58.9655 172.856 60.0575 173.66 60.2615 174.944L58.7855 175.232C58.6775 174.596 58.1735 174.164 57.4655 174.164C56.5295 174.164 55.9175 174.872 55.9175 175.976C55.9175 177.08 56.5295 177.788 57.4655 177.788C58.1735 177.788 58.6415 177.404 58.7855 176.756L60.2615 177.056C60.0335 178.328 58.9415 179.096 57.4175 179.096ZM64.8786 178.94C64.5786 179.048 64.2546 179.096 63.9066 179.096C62.6826 179.096 61.7706 178.436 61.7706 177.02V174.224H60.7506V172.952H61.7706V171.176H63.2826V172.952H64.8066V174.224H63.2826V176.876C63.2826 177.452 63.5946 177.764 64.0626 177.764C64.2906 177.764 64.5546 177.728 64.7706 177.62L64.8786 178.94ZM66.6755 172.028C66.1355 172.028 65.7395 171.62 65.7395 171.092C65.7395 170.576 66.1355 170.168 66.6755 170.168C67.2275 170.168 67.6355 170.576 67.6355 171.092C67.6355 171.62 67.2275 172.028 66.6755 172.028ZM65.9195 179V172.952H67.4315V179H65.9195ZM70.4681 179L68.2601 172.952H69.7841L71.1641 177.248L72.5441 172.952H74.0801L71.8721 179H70.4681ZM75.6638 172.028C75.1238 172.028 74.7278 171.62 74.7278 171.092C74.7278 170.576 75.1238 170.168 75.6638 170.168C76.2158 170.168 76.6238 170.576 76.6238 171.092C76.6238 171.62 76.2158 172.028 75.6638 172.028ZM74.9078 179V172.952H76.4198V179H74.9078ZM81.4723 178.94C81.1723 179.048 80.8483 179.096 80.5003 179.096C79.2763 179.096 78.3643 178.436 78.3643 177.02V174.224H77.3443V172.952H78.3643V171.176H79.8763V172.952H81.4003V174.224H79.8763V176.876C79.8763 177.452 80.1883 177.764 80.6563 177.764C80.8843 177.764 81.1483 177.728 81.3643 177.62L81.4723 178.94ZM86.4733 172.952H88.0213L84.8293 181.184H83.2933L84.2293 178.76L81.8773 172.952H83.5213L84.9733 176.84L86.4733 172.952ZM94.0639 172.856C95.6479 172.856 96.7279 173.708 96.7279 175.316V179H95.2639V178.124C94.9279 178.712 94.1959 179.096 93.4519 179.096C92.2639 179.096 91.4359 178.328 91.4359 177.296C91.4359 176.108 92.3359 175.472 94.1359 175.28L95.2639 175.172V175.112C95.2639 174.428 94.7959 174.008 94.0639 174.008C93.4039 174.008 92.9359 174.416 92.8639 175.064L91.5199 174.824C91.7119 173.624 92.7799 172.856 94.0639 172.856ZM93.7879 177.98C94.7239 177.98 95.2639 177.272 95.2639 176.384V176.252L94.1119 176.384C93.3079 176.48 92.8999 176.816 92.8999 177.248C92.8999 177.668 93.2359 177.98 93.7879 177.98ZM98.2047 179V172.952H99.7167V173.864C100.101 173.276 100.785 172.856 101.637 172.856C102.957 172.856 103.845 173.72 103.845 175.04V179H102.333V175.4C102.333 174.692 101.889 174.2 101.181 174.2C100.257 174.2 99.7167 174.992 99.7167 176.348V179H98.2047ZM107.862 179.096C106.05 179.096 104.982 177.824 104.982 175.976C104.982 174.128 106.05 172.856 107.838 172.856C108.594 172.856 109.242 173.168 109.59 173.624V170.504H111.102V179H109.59V178.304C109.29 178.784 108.618 179.096 107.862 179.096ZM108.078 177.788C109.05 177.788 109.686 177.068 109.686 175.976C109.686 174.884 109.05 174.164 108.078 174.164C107.118 174.164 106.482 174.884 106.482 175.976C106.482 177.068 107.118 177.788 108.078 177.788ZM121.251 181.184H119.739V178.4C119.391 178.832 118.743 179.096 118.047 179.096C116.271 179.096 115.131 177.824 115.131 175.976C115.131 174.128 116.199 172.856 117.939 172.856C118.755 172.856 119.403 173.18 119.739 173.648V172.952H121.251V181.184ZM118.227 177.788C119.199 177.788 119.835 177.068 119.835 175.976C119.835 174.884 119.199 174.164 118.227 174.164C117.267 174.164 116.631 174.884 116.631 175.976C116.631 177.068 117.267 177.788 118.227 177.788ZM128.36 172.952V179H126.848V178.088C126.464 178.676 125.78 179.096 124.928 179.096C123.62 179.096 122.72 178.232 122.72 176.912V172.952H124.232V176.552C124.232 177.26 124.676 177.752 125.384 177.752C126.32 177.752 126.848 176.96 126.848 175.604V172.952H128.36ZM132.162 172.856C133.746 172.856 134.826 173.708 134.826 175.316V179H133.362V178.124C133.026 178.712 132.294 179.096 131.55 179.096C130.362 179.096 129.534 178.328 129.534 177.296C129.534 176.108 130.434 175.472 132.234 175.28L133.362 175.172V175.112C133.362 174.428 132.894 174.008 132.162 174.008C131.502 174.008 131.034 174.416 130.962 175.064L129.618 174.824C129.81 173.624 130.878 172.856 132.162 172.856ZM131.886 177.98C132.822 177.98 133.362 177.272 133.362 176.384V176.252L132.21 176.384C131.406 176.48 130.998 176.816 130.998 177.248C130.998 177.668 131.334 177.98 131.886 177.98ZM136.302 179V170.504H137.814V179H136.302ZM140.035 172.028C139.495 172.028 139.099 171.62 139.099 171.092C139.099 170.576 139.495 170.168 140.035 170.168C140.587 170.168 140.995 170.576 140.995 171.092C140.995 171.62 140.587 172.028 140.035 172.028ZM139.279 179V172.952H140.791V179H139.279ZM145.843 178.94C145.543 179.048 145.219 179.096 144.871 179.096C143.647 179.096 142.735 178.436 142.735 177.02V174.224H141.715V172.952H142.735V171.176H144.247V172.952H145.771V174.224H144.247V176.876C144.247 177.452 144.559 177.764 145.027 177.764C145.255 177.764 145.519 177.728 145.735 177.62L145.843 178.94ZM150.844 172.952H152.392L149.2 181.184H147.664L148.6 178.76L146.248 172.952H147.892L149.344 176.84L150.844 172.952ZM153.68 181.184L152.648 180.404C153.764 178.832 154.304 177.176 154.304 175.34C154.304 173.528 153.764 171.848 152.648 170.3L153.68 169.52C155.024 171.128 155.744 173.144 155.744 175.34C155.744 177.548 155.024 179.564 153.68 181.184Z" fill="black"/>
<path d="M17.792 214V205.6H19.424V214H17.792ZM20.9429 214V207.952H22.4549V208.864C22.8389 208.276 23.5229 207.856 24.3749 207.856C25.6949 207.856 26.5829 208.72 26.5829 210.04V214H25.0709V210.4C25.0709 209.692 24.6269 209.2 23.9189 209.2C22.9949 209.2 22.4549 209.992 22.4549 211.348V214H20.9429ZM31.4333 213.94C31.1333 214.048 30.8093 214.096 30.4613 214.096C29.2373 214.096 28.3253 213.436 28.3253 212.02V209.224H27.3053V207.952H28.3253V206.176H29.8373V207.952H31.3613V209.224H29.8373V211.876C29.8373 212.452 30.1493 212.764 30.6173 212.764C30.8453 212.764 31.1093 212.728 31.3253 212.62L31.4333 213.94ZM38.057 210.772C38.057 210.988 38.045 211.252 38.033 211.372H33.545C33.677 212.284 34.265 212.824 35.129 212.824C35.837 212.824 36.341 212.488 36.497 211.9L37.913 212.284C37.577 213.424 36.521 214.096 35.105 214.096C33.101 214.096 32.033 212.548 32.033 210.976C32.033 209.404 33.017 207.856 35.021 207.856C37.061 207.856 38.057 209.368 38.057 210.772ZM33.581 210.268H36.437C36.365 209.548 35.897 209.008 35.021 209.008C34.277 209.008 33.749 209.452 33.581 210.268ZM43.3648 207.952H44.8648V213.616C44.8648 215.212 43.6648 216.28 41.8648 216.28C40.4488 216.28 39.3088 215.524 39.1048 214.396L40.5088 214.168C40.5808 214.732 41.1568 215.068 41.8648 215.068C42.7768 215.068 43.3768 214.552 43.3768 213.772V213.112C43.0768 213.544 42.4168 213.82 41.6968 213.82C39.9208 213.82 38.8768 212.62 38.8768 210.844C38.8768 209.056 39.9208 207.856 41.6608 207.856C42.4048 207.856 43.0288 208.144 43.3648 208.564V207.952ZM41.9128 212.512C42.8488 212.512 43.4608 211.852 43.4608 210.844C43.4608 209.824 42.8488 209.164 41.9128 209.164C40.9888 209.164 40.3768 209.824 40.3768 210.844C40.3768 211.852 40.9888 212.512 41.9128 212.512ZM50.2375 209.416C50.0215 209.32 49.7335 209.272 49.4695 209.272C48.6175 209.272 47.8495 209.98 47.8495 211.78V214H46.3375V207.952H47.8495V209.056C48.1495 208.372 48.9415 207.856 49.6735 207.856C49.8895 207.856 50.1535 207.892 50.3335 207.952L50.2375 209.416ZM53.3764 207.856C54.9604 207.856 56.0404 208.708 56.0404 210.316V214H54.5764V213.124C54.2404 213.712 53.5084 214.096 52.7644 214.096C51.5764 214.096 50.7484 213.328 50.7484 212.296C50.7484 211.108 51.6484 210.472 53.4484 210.28L54.5764 210.172V210.112C54.5764 209.428 54.1084 209.008 53.3764 209.008C52.7164 209.008 52.2484 209.416 52.1764 210.064L50.8324 209.824C51.0244 208.624 52.0924 207.856 53.3764 207.856ZM53.1004 212.98C54.0364 212.98 54.5764 212.272 54.5764 211.384V211.252L53.4244 211.384C52.6204 211.48 52.2124 211.816 52.2124 212.248C52.2124 212.668 52.5484 212.98 53.1004 212.98ZM60.9997 213.94C60.6997 214.048 60.3757 214.096 60.0277 214.096C58.8037 214.096 57.8917 213.436 57.8917 212.02V209.224H56.8717V207.952H57.8917V206.176H59.4037V207.952H60.9277V209.224H59.4037V211.876C59.4037 212.452 59.7157 212.764 60.1837 212.764C60.4117 212.764 60.6757 212.728 60.8917 212.62L60.9997 213.94ZM62.7966 207.028C62.2566 207.028 61.8606 206.62 61.8606 206.092C61.8606 205.576 62.2566 205.168 62.7966 205.168C63.3486 205.168 63.7566 205.576 63.7566 206.092C63.7566 206.62 63.3486 207.028 62.7966 207.028ZM62.0406 214V207.952H63.5526V214H62.0406ZM67.8492 214.096C66.0132 214.096 64.6932 212.776 64.6932 210.976C64.6932 209.176 66.0132 207.856 67.8492 207.856C69.6852 207.856 71.0052 209.176 71.0052 210.976C71.0052 212.776 69.6852 214.096 67.8492 214.096ZM67.8492 212.788C68.8212 212.788 69.4812 212.056 69.4812 210.976C69.4812 209.896 68.8212 209.164 67.8492 209.164C66.8652 209.164 66.2172 209.896 66.2172 210.976C66.2172 212.056 66.8652 212.788 67.8492 212.788ZM72.1422 214V207.952H73.6542V208.864C74.0382 208.276 74.7222 207.856 75.5742 207.856C76.8942 207.856 77.7822 208.72 77.7822 210.04V214H76.2702V210.4C76.2702 209.692 75.8262 209.2 75.1182 209.2C74.1942 209.2 73.6542 209.992 73.6542 211.348V214H72.1422ZM81.3557 214.096C79.8917 214.096 79.0157 213.196 78.7157 212.308L79.9517 211.804C80.1317 212.416 80.5997 212.92 81.3557 212.92C81.9197 212.92 82.2917 212.62 82.2917 212.236C82.2917 211.096 78.9917 211.84 78.9917 209.548C78.9917 208.6 79.8197 207.856 81.1397 207.856C82.3157 207.856 83.3117 208.456 83.5757 209.332L82.3517 209.848C82.1837 209.272 81.6557 208.972 81.1637 208.972C80.6837 208.972 80.3597 209.176 80.3597 209.524C80.3597 210.592 83.6837 209.74 83.6837 212.212C83.6837 213.256 82.7477 214.096 81.3557 214.096ZM89.0738 214L87.1898 207.952H88.7138L89.7578 211.888L90.9698 207.952H92.3498L93.5618 211.888L94.5938 207.952H96.1178L94.2458 214H92.8898L91.6658 210.052L90.4178 214H89.0738ZM97.8708 207.028C97.3308 207.028 96.9348 206.62 96.9348 206.092C96.9348 205.576 97.3308 205.168 97.8708 205.168C98.4228 205.168 98.8308 205.576 98.8308 206.092C98.8308 206.62 98.4228 207.028 97.8708 207.028ZM97.1148 214V207.952H98.6268V214H97.1148ZM103.679 213.94C103.379 214.048 103.055 214.096 102.707 214.096C101.483 214.096 100.571 213.436 100.571 212.02V209.224H99.5514V207.952H100.571V206.176H102.083V207.952H103.607V209.224H102.083V211.876C102.083 212.452 102.395 212.764 102.863 212.764C103.091 212.764 103.355 212.728 103.571 212.62L103.679 213.94ZM105.025 214V205.504H106.537V208.888C106.933 208.228 107.617 207.856 108.457 207.856C109.813 207.856 110.713 208.72 110.713 210.04V214H109.201V210.412C109.201 209.668 108.745 209.2 108.001 209.2C107.065 209.2 106.537 210.004 106.537 211.372V214H105.025ZM117.804 214.096C115.992 214.096 114.732 212.824 114.732 210.976C114.732 209.128 115.992 207.856 117.804 207.856C119.352 207.856 120.444 208.66 120.648 209.944L119.172 210.232C119.064 209.596 118.56 209.164 117.852 209.164C116.916 209.164 116.304 209.872 116.304 210.976C116.304 212.08 116.916 212.788 117.852 212.788C118.56 212.788 119.028 212.404 119.172 211.756L120.648 212.056C120.42 213.328 119.328 214.096 117.804 214.096ZM121.783 214V205.504H123.295V214H121.783ZM127.591 214.096C125.755 214.096 124.435 212.776 124.435 210.976C124.435 209.176 125.755 207.856 127.591 207.856C129.427 207.856 130.747 209.176 130.747 210.976C130.747 212.776 129.427 214.096 127.591 214.096ZM127.591 212.788C128.563 212.788 129.223 212.056 129.223 210.976C129.223 209.896 128.563 209.164 127.591 209.164C126.607 209.164 125.959 209.896 125.959 210.976C125.959 212.056 126.607 212.788 127.591 212.788ZM137.524 207.952V214H136.012V213.088C135.628 213.676 134.944 214.096 134.092 214.096C132.784 214.096 131.884 213.232 131.884 211.912V207.952H133.396V211.552C133.396 212.26 133.84 212.752 134.548 212.752C135.484 212.752 136.012 211.96 136.012 210.604V207.952H137.524ZM141.554 214.096C139.742 214.096 138.674 212.824 138.674 210.976C138.674 209.128 139.742 207.856 141.53 207.856C142.286 207.856 142.934 208.168 143.282 208.624V205.504H144.794V214H143.282V213.304C142.982 213.784 142.31 214.096 141.554 214.096ZM141.77 212.788C142.742 212.788 143.378 212.068 143.378 210.976C143.378 209.884 142.742 209.164 141.77 209.164C140.81 209.164 140.174 209.884 140.174 210.976C140.174 212.068 140.81 212.788 141.77 212.788ZM151.702 214.096C149.89 214.096 148.822 212.824 148.822 210.976C148.822 209.128 149.89 207.856 151.678 207.856C152.434 207.856 153.082 208.168 153.43 208.624V205.504H154.942V214H153.43V213.304C153.13 213.784 152.458 214.096 151.702 214.096ZM151.918 212.788C152.89 212.788 153.526 212.068 153.526 210.976C153.526 209.884 152.89 209.164 151.918 209.164C150.958 209.164 150.322 209.884 150.322 210.976C150.322 212.068 150.958 212.788 151.918 212.788ZM158.74 207.856C160.324 207.856 161.404 208.708 161.404 210.316V214H159.94V213.124C159.604 213.712 158.872 214.096 158.128 214.096C156.94 214.096 156.112 213.328 156.112 212.296C156.112 211.108 157.012 210.472 158.812 210.28L159.94 210.172V210.112C159.94 209.428 159.472 209.008 158.74 209.008C158.08 209.008 157.612 209.416 157.54 210.064L156.196 209.824C156.388 208.624 157.456 207.856 158.74 207.856ZM158.464 212.98C159.4 212.98 159.94 212.272 159.94 211.384V211.252L158.788 211.384C157.984 211.48 157.576 211.816 157.576 212.248C157.576 212.668 157.912 212.98 158.464 212.98ZM166.363 213.94C166.063 214.048 165.739 214.096 165.391 214.096C164.167 214.096 163.255 213.436 163.255 212.02V209.224H162.235V207.952H163.255V206.176H164.767V207.952H166.291V209.224H164.767V211.876C164.767 212.452 165.079 212.764 165.547 212.764C165.775 212.764 166.039 212.728 166.255 212.62L166.363 213.94ZM169.65 207.856C171.234 207.856 172.314 208.708 172.314 210.316V214H170.85V213.124C170.514 213.712 169.782 214.096 169.038 214.096C167.85 214.096 167.022 213.328 167.022 212.296C167.022 211.108 167.922 210.472 169.722 210.28L170.85 210.172V210.112C170.85 209.428 170.382 209.008 169.65 209.008C168.99 209.008 168.522 209.416 168.45 210.064L167.106 209.824C167.298 208.624 168.366 207.856 169.65 207.856ZM169.374 212.98C170.31 212.98 170.85 212.272 170.85 211.384V211.252L169.698 211.384C168.894 211.48 168.486 211.816 168.486 212.248C168.486 212.668 168.822 212.98 169.374 212.98ZM19.844 233.096C18.38 233.096 17.504 232.196 17.204 231.308L18.44 230.804C18.62 231.416 19.088 231.92 19.844 231.92C20.408 231.92 20.78 231.62 20.78 231.236C20.78 230.096 17.48 230.84 17.48 228.548C17.48 227.6 18.308 226.856 19.628 226.856C20.804 226.856 21.8 227.456 22.064 228.332L20.84 228.848C20.672 228.272 20.144 227.972 19.652 227.972C19.172 227.972 18.848 228.176 18.848 228.524C18.848 229.592 22.172 228.74 22.172 231.212C22.172 232.256 21.236 233.096 19.844 233.096ZM26.7692 232.94C26.4692 233.048 26.1452 233.096 25.7972 233.096C24.5732 233.096 23.6612 232.436 23.6612 231.02V228.224H22.6412V226.952H23.6612V225.176H25.1732V226.952H26.6972V228.224H25.1732V230.876C25.1732 231.452 25.4852 231.764 25.9532 231.764C26.1812 231.764 26.4452 231.728 26.6612 231.62L26.7692 232.94ZM30.5249 233.096C28.6889 233.096 27.3689 231.776 27.3689 229.976C27.3689 228.176 28.6889 226.856 30.5249 226.856C32.3609 226.856 33.6809 228.176 33.6809 229.976C33.6809 231.776 32.3609 233.096 30.5249 233.096ZM30.5249 231.788C31.4969 231.788 32.1569 231.056 32.1569 229.976C32.1569 228.896 31.4969 228.164 30.5249 228.164C29.5409 228.164 28.8929 228.896 28.8929 229.976C28.8929 231.056 29.5409 231.788 30.5249 231.788ZM38.7179 228.416C38.5019 228.32 38.2139 228.272 37.9499 228.272C37.0979 228.272 36.3299 228.98 36.3299 230.78V233H34.8179V226.952H36.3299V228.056C36.6299 227.372 37.4219 226.856 38.1539 226.856C38.3699 226.856 38.6339 226.892 38.8139 226.952L38.7179 228.416ZM41.8569 226.856C43.4409 226.856 44.5209 227.708 44.5209 229.316V233H43.0569V232.124C42.7209 232.712 41.9889 233.096 41.2449 233.096C40.0569 233.096 39.2289 232.328 39.2289 231.296C39.2289 230.108 40.1289 229.472 41.9289 229.28L43.0569 229.172V229.112C43.0569 228.428 42.5889 228.008 41.8569 228.008C41.1969 228.008 40.7289 228.416 40.6569 229.064L39.3129 228.824C39.5049 227.624 40.5729 226.856 41.8569 226.856ZM41.5809 231.98C42.5169 231.98 43.0569 231.272 43.0569 230.384V230.252L41.9049 230.384C41.1009 230.48 40.6929 230.816 40.6929 231.248C40.6929 231.668 41.0289 231.98 41.5809 231.98ZM50.1616 226.952H51.6616V232.616C51.6616 234.212 50.4616 235.28 48.6616 235.28C47.2456 235.28 46.1056 234.524 45.9016 233.396L47.3056 233.168C47.3776 233.732 47.9536 234.068 48.6616 234.068C49.5736 234.068 50.1736 233.552 50.1736 232.772V232.112C49.8736 232.544 49.2136 232.82 48.4936 232.82C46.7176 232.82 45.6736 231.62 45.6736 229.844C45.6736 228.056 46.7176 226.856 48.4576 226.856C49.2016 226.856 49.8256 227.144 50.1616 227.564V226.952ZM48.7096 231.512C49.6456 231.512 50.2576 230.852 50.2576 229.844C50.2576 228.824 49.6456 228.164 48.7096 228.164C47.7856 228.164 47.1736 228.824 47.1736 229.844C47.1736 230.852 47.7856 231.512 48.7096 231.512ZM58.8343 229.772C58.8343 229.988 58.8223 230.252 58.8103 230.372H54.3223C54.4543 231.284 55.0423 231.824 55.9063 231.824C56.6143 231.824 57.1183 231.488 57.2743 230.9L58.6903 231.284C58.3543 232.424 57.2983 233.096 55.8823 233.096C53.8783 233.096 52.8103 231.548 52.8103 229.976C52.8103 228.404 53.7943 226.856 55.7983 226.856C57.8383 226.856 58.8343 228.368 58.8343 229.772ZM54.3583 229.268H57.2143C57.1423 228.548 56.6743 228.008 55.7983 228.008C55.0543 228.008 54.5263 228.452 54.3583 229.268ZM68.5129 233L67.8289 231.14H64.5769L63.8929 233H62.2129L65.4409 224.6H66.9649L70.1929 233H68.5129ZM65.0929 229.76H67.3249L66.2089 226.736L65.0929 229.76ZM72.0577 233L69.6097 224.6H71.2897L72.9097 231.056L74.5537 224.6H76.4017L78.0577 231.056L79.6777 224.6H81.3577L78.9337 233H77.2057L75.4897 226.844L73.7617 233H72.0577ZM84.97 233.096C83.314 233.096 81.934 231.98 81.73 230.456L83.182 230.012C83.314 231.02 84.094 231.704 85.03 231.704C85.906 231.704 86.482 231.284 86.482 230.648C86.482 228.836 82.03 229.856 82.03 226.808C82.03 225.464 83.29 224.504 84.946 224.504C86.542 224.504 87.802 225.356 88.066 226.628L86.602 227.228C86.434 226.412 85.822 225.896 84.946 225.896C84.142 225.896 83.65 226.244 83.65 226.808C83.65 228.332 88.138 227.204 88.138 230.612C88.138 232.1 86.866 233.096 84.97 233.096ZM88.7958 234.5L89.5878 231.416H91.3878L89.7918 234.5H88.7958ZM99.5243 233.096C97.3883 233.096 95.4083 231.668 95.4083 228.8C95.4083 225.932 97.4363 224.504 99.6323 224.504C101.648 224.504 103.076 225.56 103.4 227.3L101.792 227.636C101.588 226.58 100.748 225.908 99.6203 225.908C98.1203 225.908 97.0523 226.964 97.0523 228.8C97.0523 230.636 98.1203 231.68 99.5963 231.68C100.868 231.68 101.72 230.924 101.804 229.832H99.3083V228.512H103.316V233H101.84V231.98C101.468 232.664 100.544 233.096 99.5243 233.096ZM108.608 233.096C106.388 233.096 104.432 231.644 104.432 228.8C104.432 225.956 106.424 224.504 108.608 224.504C110.624 224.504 112.052 225.608 112.34 227.3L110.72 227.636C110.504 226.568 109.688 225.908 108.608 225.908C107.192 225.908 106.088 226.916 106.088 228.8C106.088 230.684 107.18 231.68 108.608 231.68C109.7 231.68 110.456 231.08 110.672 230.096L112.316 230.456C111.908 232.1 110.54 233.096 108.608 233.096ZM113.394 233V224.6H116.778C118.482 224.6 119.574 225.608 119.574 227.168C119.574 228.716 118.482 229.724 116.778 229.724H115.026V233H113.394ZM115.026 228.32H116.634C117.45 228.32 117.942 227.888 117.942 227.168C117.942 226.436 117.45 226.004 116.634 226.004H115.026V228.32ZM119.147 234.5L119.939 231.416H121.739L120.143 234.5H119.147ZM131.724 233L131.04 231.14H127.788L127.104 233H125.424L128.652 224.6H130.176L133.404 233H131.724ZM128.304 229.76H130.536L129.42 226.736L128.304 229.76ZM133.856 233V231.848L137.132 228.224H134.06V226.952H138.98V228.104L135.728 231.728H139.052V233H133.856ZM145.681 226.952V233H144.169V232.088C143.785 232.676 143.101 233.096 142.249 233.096C140.941 233.096 140.041 232.232 140.041 230.912V226.952H141.553V230.552C141.553 231.26 141.997 231.752 142.705 231.752C143.641 231.752 144.169 230.96 144.169 229.604V226.952H145.681ZM151.054 228.416C150.838 228.32 150.55 228.272 150.286 228.272C149.434 228.272 148.666 228.98 148.666 230.78V233H147.154V226.952H148.666V228.056C148.966 227.372 149.758 226.856 150.49 226.856C150.706 226.856 150.97 226.892 151.15 226.952L151.054 228.416ZM157.518 229.772C157.518 229.988 157.506 230.252 157.494 230.372H153.006C153.138 231.284 153.726 231.824 154.59 231.824C155.298 231.824 155.802 231.488 155.958 230.9L157.374 231.284C157.038 232.424 155.982 233.096 154.566 233.096C152.562 233.096 151.494 231.548 151.494 229.976C151.494 228.404 152.478 226.856 154.482 226.856C156.522 226.856 157.518 228.368 157.518 229.772ZM153.042 229.268H155.898C155.826 228.548 155.358 228.008 154.482 228.008C153.738 228.008 153.21 228.452 153.042 229.268Z" fill="black"/>
<path d="M25.928 263.8C25.928 264.988 25.52 266.032 24.812 266.788L25.772 267.832L24.764 268.72L23.732 267.604C23.132 267.928 22.436 268.096 21.68 268.096C19.22 268.096 17.42 266.284 17.42 263.8C17.42 261.316 19.22 259.504 21.68 259.504C24.128 259.504 25.928 261.316 25.928 263.8ZM21.68 266.68C22.04 266.68 22.388 266.608 22.688 266.488L21.236 264.916L22.268 264.004L23.744 265.624C24.092 265.132 24.284 264.508 24.284 263.8C24.284 262.132 23.204 260.908 21.68 260.908C20.156 260.908 19.064 262.132 19.064 263.8C19.064 265.468 20.156 266.68 21.68 266.68ZM32.747 261.952V268H31.235V267.088C30.851 267.676 30.167 268.096 29.315 268.096C28.007 268.096 27.107 267.232 27.107 265.912V261.952H28.619V265.552C28.619 266.26 29.063 266.752 29.771 266.752C30.707 266.752 31.235 265.96 31.235 264.604V261.952H32.747ZM36.5483 261.856C38.1323 261.856 39.2123 262.708 39.2123 264.316V268H37.7483V267.124C37.4123 267.712 36.6803 268.096 35.9363 268.096C34.7483 268.096 33.9203 267.328 33.9203 266.296C33.9203 265.108 34.8203 264.472 36.6203 264.28L37.7483 264.172V264.112C37.7483 263.428 37.2803 263.008 36.5483 263.008C35.8883 263.008 35.4203 263.416 35.3483 264.064L34.0043 263.824C34.1963 262.624 35.2643 261.856 36.5483 261.856ZM36.2723 266.98C37.2083 266.98 37.7483 266.272 37.7483 265.384V265.252L36.5963 265.384C35.7923 265.48 35.3843 265.816 35.3843 266.248C35.3843 266.668 35.7203 266.98 36.2723 266.98ZM40.689 268V259.504H42.201V268H40.689ZM44.4216 261.028C43.8816 261.028 43.4856 260.62 43.4856 260.092C43.4856 259.576 43.8816 259.168 44.4216 259.168C44.9736 259.168 45.3816 259.576 45.3816 260.092C45.3816 260.62 44.9736 261.028 44.4216 261.028ZM43.6656 268V261.952H45.1776V268H43.6656ZM50.2302 267.94C49.9302 268.048 49.6062 268.096 49.2582 268.096C48.0342 268.096 47.1222 267.436 47.1222 266.02V263.224H46.1022V261.952H47.1222V260.176H48.6342V261.952H50.1582V263.224H48.6342V265.876C48.6342 266.452 48.9462 266.764 49.4142 266.764C49.6422 266.764 49.9062 266.728 50.1222 266.62L50.2302 267.94ZM55.2311 261.952H56.7791L53.5871 270.184H52.0511L52.9871 267.76L50.6351 261.952H52.2791L53.7311 265.84L55.2311 261.952ZM63.2417 268.096C61.4297 268.096 60.1697 266.824 60.1697 264.976C60.1697 263.128 61.4297 261.856 63.2417 261.856C64.7897 261.856 65.8817 262.66 66.0857 263.944L64.6097 264.232C64.5017 263.596 63.9977 263.164 63.2897 263.164C62.3537 263.164 61.7417 263.872 61.7417 264.976C61.7417 266.08 62.3537 266.788 63.2897 266.788C63.9977 266.788 64.4657 266.404 64.6097 265.756L66.0857 266.056C65.8577 267.328 64.7657 268.096 63.2417 268.096ZM70.0523 268.096C68.2163 268.096 66.8963 266.776 66.8963 264.976C66.8963 263.176 68.2163 261.856 70.0523 261.856C71.8883 261.856 73.2083 263.176 73.2083 264.976C73.2083 266.776 71.8883 268.096 70.0523 268.096ZM70.0523 266.788C71.0243 266.788 71.6843 266.056 71.6843 264.976C71.6843 263.896 71.0243 263.164 70.0523 263.164C69.0683 263.164 68.4203 263.896 68.4203 264.976C68.4203 266.056 69.0683 266.788 70.0523 266.788ZM74.3453 268V261.952H75.8573V262.864C76.2413 262.276 76.9253 261.856 77.7773 261.856C79.0973 261.856 79.9853 262.72 79.9853 264.04V268H78.4733V264.4C78.4733 263.692 78.0293 263.2 77.3213 263.2C76.3973 263.2 75.8573 263.992 75.8573 265.348V268H74.3453ZM84.8356 267.94C84.5356 268.048 84.2116 268.096 83.8636 268.096C82.6396 268.096 81.7276 267.436 81.7276 266.02V263.224H80.7076V261.952H81.7276V260.176H83.2396V261.952H84.7636V263.224H83.2396V265.876C83.2396 266.452 83.5516 266.764 84.0196 266.764C84.2476 266.764 84.5116 266.728 84.7276 266.62L84.8356 267.94ZM89.7765 263.416C89.5605 263.32 89.2725 263.272 89.0085 263.272C88.1565 263.272 87.3885 263.98 87.3885 265.78V268H85.8765V261.952H87.3885V263.056C87.6885 262.372 88.4805 261.856 89.2125 261.856C89.4285 261.856 89.6925 261.892 89.8725 261.952L89.7765 263.416ZM93.3726 268.096C91.5366 268.096 90.2166 266.776 90.2166 264.976C90.2166 263.176 91.5366 261.856 93.3726 261.856C95.2086 261.856 96.5286 263.176 96.5286 264.976C96.5286 266.776 95.2086 268.096 93.3726 268.096ZM93.3726 266.788C94.3446 266.788 95.0046 266.056 95.0046 264.976C95.0046 263.896 94.3446 263.164 93.3726 263.164C92.3886 263.164 91.7406 263.896 91.7406 264.976C91.7406 266.056 92.3886 266.788 93.3726 266.788ZM97.6656 268V259.504H99.1776V268H97.6656ZM104.941 268L103.057 261.952H104.581L105.625 265.888L106.837 261.952H108.217L109.429 265.888L110.461 261.952H111.985L110.113 268H108.757L107.533 264.052L106.285 268H104.941ZM115.591 268.096C113.755 268.096 112.435 266.776 112.435 264.976C112.435 263.176 113.755 261.856 115.591 261.856C117.427 261.856 118.747 263.176 118.747 264.976C118.747 266.776 117.427 268.096 115.591 268.096ZM115.591 266.788C116.563 266.788 117.223 266.056 117.223 264.976C117.223 263.896 116.563 263.164 115.591 263.164C114.607 263.164 113.959 263.896 113.959 264.976C113.959 266.056 114.607 266.788 115.591 266.788ZM123.784 263.416C123.568 263.32 123.28 263.272 123.016 263.272C122.164 263.272 121.396 263.98 121.396 265.78V268H119.884V261.952H121.396V263.056C121.696 262.372 122.488 261.856 123.22 261.856C123.436 261.856 123.7 261.892 123.88 261.952L123.784 263.416ZM128.851 268L126.991 265.336L126.283 266.032V268H124.759V259.504H126.283V264.1L128.563 261.952H130.483L128.023 264.34L130.675 268H128.851ZM132.014 268V263.224H131.042V261.952H132.014V261.484C132.014 260.068 132.926 259.3 134.15 259.3C134.462 259.3 134.774 259.348 135.062 259.432L134.954 260.68C134.75 260.596 134.546 260.56 134.354 260.56C133.85 260.56 133.526 260.92 133.526 261.484V261.952H134.966V263.224H133.526V268H132.014ZM136.056 268V259.504H137.568V268H136.056ZM141.865 268.096C140.029 268.096 138.709 266.776 138.709 264.976C138.709 263.176 140.029 261.856 141.865 261.856C143.701 261.856 145.021 263.176 145.021 264.976C145.021 266.776 143.701 268.096 141.865 268.096ZM141.865 266.788C142.837 266.788 143.497 266.056 143.497 264.976C143.497 263.896 142.837 263.164 141.865 263.164C140.881 263.164 140.233 263.896 140.233 264.976C140.233 266.056 140.881 266.788 141.865 266.788ZM147.351 268L145.467 261.952H146.991L148.035 265.888L149.247 261.952H150.627L151.839 265.888L152.871 261.952H154.395L152.523 268H151.167L149.943 264.052L148.695 268H147.351ZM157.375 268.096C155.911 268.096 155.035 267.196 154.735 266.308L155.971 265.804C156.151 266.416 156.619 266.92 157.375 266.92C157.939 266.92 158.311 266.62 158.311 266.236C158.311 265.096 155.011 265.84 155.011 263.548C155.011 262.6 155.839 261.856 157.159 261.856C158.335 261.856 159.331 262.456 159.595 263.332L158.371 263.848C158.203 263.272 157.675 262.972 157.183 262.972C156.703 262.972 156.379 263.176 156.379 263.524C156.379 264.592 159.703 263.74 159.703 266.212C159.703 267.256 158.767 268.096 157.375 268.096Z" fill="black"/>
<path d="M21.596 307.096C19.376 307.096 17.42 305.644 17.42 302.8C17.42 299.956 19.412 298.504 21.596 298.504C23.612 298.504 25.04 299.608 25.328 301.3L23.708 301.636C23.492 300.568 22.676 299.908 21.596 299.908C20.18 299.908 19.076 300.916 19.076 302.8C19.076 304.684 20.168 305.68 21.596 305.68C22.688 305.68 23.444 305.08 23.66 304.096L25.304 304.456C24.896 306.1 23.528 307.096 21.596 307.096ZM32.1976 303.772C32.1976 303.988 32.1856 304.252 32.1736 304.372H27.6856C27.8176 305.284 28.4056 305.824 29.2696 305.824C29.9776 305.824 30.4816 305.488 30.6376 304.9L32.0536 305.284C31.7176 306.424 30.6616 307.096 29.2456 307.096C27.2416 307.096 26.1736 305.548 26.1736 303.976C26.1736 302.404 27.1576 300.856 29.1616 300.856C31.2016 300.856 32.1976 302.368 32.1976 303.772ZM27.7216 303.268H30.5776C30.5056 302.548 30.0376 302.008 29.1616 302.008C28.4176 302.008 27.8896 302.452 27.7216 303.268ZM33.3414 307V300.952H34.8534V301.864C35.2374 301.276 35.9214 300.856 36.7734 300.856C38.0934 300.856 38.9814 301.72 38.9814 303.04V307H37.4694V303.4C37.4694 302.692 37.0254 302.2 36.3174 302.2C35.3934 302.2 34.8534 302.992 34.8534 304.348V307H33.3414ZM43.8317 306.94C43.5317 307.048 43.2077 307.096 42.8597 307.096C41.6357 307.096 40.7237 306.436 40.7237 305.02V302.224H39.7037V300.952H40.7237V299.176H42.2357V300.952H43.7597V302.224H42.2357V304.876C42.2357 305.452 42.5477 305.764 43.0157 305.764C43.2437 305.764 43.5077 305.728 43.7237 305.62L43.8317 306.94ZM48.7726 302.416C48.5566 302.32 48.2686 302.272 48.0046 302.272C47.1526 302.272 46.3846 302.98 46.3846 304.78V307H44.8726V300.952H46.3846V302.056C46.6846 301.372 47.4766 300.856 48.2086 300.856C48.4246 300.856 48.6886 300.892 48.8686 300.952L48.7726 302.416ZM51.9116 300.856C53.4956 300.856 54.5756 301.708 54.5756 303.316V307H53.1116V306.124C52.7756 306.712 52.0436 307.096 51.2996 307.096C50.1116 307.096 49.2836 306.328 49.2836 305.296C49.2836 304.108 50.1836 303.472 51.9836 303.28L53.1116 303.172V303.112C53.1116 302.428 52.6436 302.008 51.9116 302.008C51.2516 302.008 50.7836 302.416 50.7116 303.064L49.3676 302.824C49.5596 301.624 50.6276 300.856 51.9116 300.856ZM51.6356 305.98C52.5716 305.98 53.1116 305.272 53.1116 304.384V304.252L51.9596 304.384C51.1556 304.48 50.7476 304.816 50.7476 305.248C50.7476 305.668 51.0836 305.98 51.6356 305.98ZM56.0523 307V298.504H57.5643V307H56.0523ZM59.7849 300.028C59.2449 300.028 58.8489 299.62 58.8489 299.092C58.8489 298.576 59.2449 298.168 59.7849 298.168C60.3369 298.168 60.7449 298.576 60.7449 299.092C60.7449 299.62 60.3369 300.028 59.7849 300.028ZM59.0289 307V300.952H60.5409V307H59.0289ZM61.6454 307V305.848L64.9214 302.224H61.8494V300.952H66.7694V302.104L63.5174 305.728H66.8414V307H61.6454ZM73.5297 303.772C73.5297 303.988 73.5177 304.252 73.5057 304.372H69.0177C69.1497 305.284 69.7377 305.824 70.6017 305.824C71.3097 305.824 71.8137 305.488 71.9697 304.9L73.3857 305.284C73.0497 306.424 71.9937 307.096 70.5777 307.096C68.5737 307.096 67.5057 305.548 67.5057 303.976C67.5057 302.404 68.4897 300.856 70.4937 300.856C72.5337 300.856 73.5297 302.368 73.5297 303.772ZM69.0537 303.268H71.9097C71.8377 302.548 71.3697 302.008 70.4937 302.008C69.7497 302.008 69.2217 302.452 69.0537 303.268ZM77.2294 307.096C75.4174 307.096 74.3494 305.824 74.3494 303.976C74.3494 302.128 75.4174 300.856 77.2054 300.856C77.9614 300.856 78.6094 301.168 78.9574 301.624V298.504H80.4694V307H78.9574V306.304C78.6574 306.784 77.9854 307.096 77.2294 307.096ZM77.4454 305.788C78.4174 305.788 79.0534 305.068 79.0534 303.976C79.0534 302.884 78.4174 302.164 77.4454 302.164C76.4854 302.164 75.8494 302.884 75.8494 303.976C75.8494 305.068 76.4854 305.788 77.4454 305.788ZM88.4098 306.94C88.1098 307.048 87.7858 307.096 87.4378 307.096C86.2138 307.096 85.3018 306.436 85.3018 305.02V302.224H84.2818V300.952H85.3018V299.176H86.8138V300.952H88.3378V302.224H86.8138V304.876C86.8138 305.452 87.1258 305.764 87.5938 305.764C87.8218 305.764 88.0858 305.728 88.3018 305.62L88.4098 306.94ZM91.6967 300.856C93.2807 300.856 94.3607 301.708 94.3607 303.316V307H92.8967V306.124C92.5607 306.712 91.8287 307.096 91.0847 307.096C89.8967 307.096 89.0687 306.328 89.0687 305.296C89.0687 304.108 89.9687 303.472 91.7687 303.28L92.8967 303.172V303.112C92.8967 302.428 92.4287 302.008 91.6967 302.008C91.0367 302.008 90.5687 302.416 90.4967 303.064L89.1527 302.824C89.3447 301.624 90.4127 300.856 91.6967 300.856ZM91.4207 305.98C92.3567 305.98 92.8967 305.272 92.8967 304.384V304.252L91.7447 304.384C90.9407 304.48 90.5327 304.816 90.5327 305.248C90.5327 305.668 90.8687 305.98 91.4207 305.98ZM97.9495 307.096C96.4855 307.096 95.6095 306.196 95.3095 305.308L96.5455 304.804C96.7255 305.416 97.1935 305.92 97.9495 305.92C98.5135 305.92 98.8855 305.62 98.8855 305.236C98.8855 304.096 95.5855 304.84 95.5855 302.548C95.5855 301.6 96.4135 300.856 97.7335 300.856C98.9095 300.856 99.9055 301.456 100.169 302.332L98.9455 302.848C98.7775 302.272 98.2495 301.972 97.7575 301.972C97.2775 301.972 96.9535 302.176 96.9535 302.524C96.9535 303.592 100.277 302.74 100.277 305.212C100.277 306.256 99.3415 307.096 97.9495 307.096ZM105.461 307L103.601 304.336L102.893 305.032V307H101.369V298.504H102.893V303.1L105.173 300.952H107.093L104.633 303.34L107.285 307H105.461ZM113.306 300.856C114.89 300.856 115.97 301.708 115.97 303.316V307H114.506V306.124C114.17 306.712 113.438 307.096 112.694 307.096C111.506 307.096 110.678 306.328 110.678 305.296C110.678 304.108 111.578 303.472 113.378 303.28L114.506 303.172V303.112C114.506 302.428 114.038 302.008 113.306 302.008C112.646 302.008 112.178 302.416 112.106 303.064L110.762 302.824C110.954 301.624 112.022 300.856 113.306 300.856ZM113.03 305.98C113.966 305.98 114.506 305.272 114.506 304.384V304.252L113.354 304.384C112.55 304.48 112.142 304.816 112.142 305.248C112.142 305.668 112.478 305.98 113.03 305.98ZM119.559 307.096C118.095 307.096 117.219 306.196 116.919 305.308L118.155 304.804C118.335 305.416 118.803 305.92 119.559 305.92C120.123 305.92 120.495 305.62 120.495 305.236C120.495 304.096 117.195 304.84 117.195 302.548C117.195 301.6 118.023 300.856 119.343 300.856C120.519 300.856 121.515 301.456 121.779 302.332L120.555 302.848C120.387 302.272 119.859 301.972 119.367 301.972C118.887 301.972 118.563 302.176 118.563 302.524C118.563 303.592 121.887 302.74 121.887 305.212C121.887 306.256 120.951 307.096 119.559 307.096ZM125.09 307.096C123.626 307.096 122.75 306.196 122.45 305.308L123.686 304.804C123.866 305.416 124.334 305.92 125.09 305.92C125.654 305.92 126.026 305.62 126.026 305.236C126.026 304.096 122.726 304.84 122.726 302.548C122.726 301.6 123.554 300.856 124.874 300.856C126.05 300.856 127.046 301.456 127.31 302.332L126.086 302.848C125.918 302.272 125.39 301.972 124.898 301.972C124.418 301.972 124.094 302.176 124.094 302.524C124.094 303.592 127.418 302.74 127.418 305.212C127.418 306.256 126.482 307.096 125.09 307.096ZM129.265 300.028C128.725 300.028 128.329 299.62 128.329 299.092C128.329 298.576 128.725 298.168 129.265 298.168C129.817 298.168 130.225 298.576 130.225 299.092C130.225 299.62 129.817 300.028 129.265 300.028ZM128.509 307V300.952H130.021V307H128.509ZM135.65 300.952H137.15V306.616C137.15 308.212 135.95 309.28 134.15 309.28C132.734 309.28 131.594 308.524 131.39 307.396L132.794 307.168C132.866 307.732 133.442 308.068 134.15 308.068C135.062 308.068 135.662 307.552 135.662 306.772V306.112C135.362 306.544 134.702 306.82 133.982 306.82C132.206 306.82 131.162 305.62 131.162 303.844C131.162 302.056 132.206 300.856 133.946 300.856C134.69 300.856 135.314 301.144 135.65 301.564V300.952ZM134.198 305.512C135.134 305.512 135.746 304.852 135.746 303.844C135.746 302.824 135.134 302.164 134.198 302.164C133.274 302.164 132.662 302.824 132.662 303.844C132.662 304.852 133.274 305.512 134.198 305.512ZM138.623 307V300.952H140.135V301.864C140.519 301.276 141.203 300.856 142.055 300.856C143.375 300.856 144.263 301.72 144.263 303.04V307H142.751V303.4C142.751 302.692 142.307 302.2 141.599 302.2C140.675 302.2 140.135 302.992 140.135 304.348V307H138.623ZM145.724 307V300.952H147.236V301.876C147.572 301.276 148.136 300.856 148.976 300.856C149.936 300.856 150.584 301.264 150.86 301.996C151.184 301.384 151.904 300.856 152.864 300.856C154.172 300.856 155.024 301.708 155.024 302.896V307H153.512V303.316C153.512 302.596 153.116 302.14 152.408 302.14C151.592 302.14 151.124 302.848 151.124 303.916V307H149.612V303.316C149.612 302.596 149.228 302.14 148.532 302.14C147.704 302.14 147.236 302.86 147.236 303.928V307H145.724ZM162.194 303.772C162.194 303.988 162.182 304.252 162.17 304.372H157.682C157.814 305.284 158.402 305.824 159.266 305.824C159.974 305.824 160.478 305.488 160.634 304.9L162.05 305.284C161.714 306.424 160.658 307.096 159.242 307.096C157.238 307.096 156.17 305.548 156.17 303.976C156.17 302.404 157.154 300.856 159.158 300.856C161.198 300.856 162.194 302.368 162.194 303.772ZM157.718 303.268H160.574C160.502 302.548 160.034 302.008 159.158 302.008C158.414 302.008 157.886 302.452 157.718 303.268ZM163.337 307V300.952H164.849V301.864C165.233 301.276 165.917 300.856 166.769 300.856C168.089 300.856 168.977 301.72 168.977 303.04V307H167.465V303.4C167.465 302.692 167.021 302.2 166.313 302.2C165.389 302.2 164.849 302.992 164.849 304.348V307H163.337ZM173.828 306.94C173.528 307.048 173.204 307.096 172.856 307.096C171.632 307.096 170.72 306.436 170.72 305.02V302.224H169.7V300.952H170.72V299.176H172.232V300.952H173.756V302.224H172.232V304.876C172.232 305.452 172.544 305.764 173.012 305.764C173.24 305.764 173.504 305.728 173.72 305.62L173.828 306.94Z" fill="black"/>
<path d="M214 327L214 12" stroke="#EDEDED"/>
<path d="M325 327L325 12" stroke="#EDEDED"/>
<circle cx="270" cy="67" r="6" fill="#389C28"/>
<path d="M269.593 68.2827L267.617 66.2999L267.164 66.7616L269.593 69.2062L273.48 65.2469L273.027 64.7852L269.593 68.2827Z" fill="white" stroke="white"/>
<circle cx="270" cy="111" r="6" fill="#389C28"/>
<path d="M269.593 112.283L267.617 110.3L267.164 110.762L269.593 113.206L273.48 109.247L273.027 108.785L269.593 112.283Z" fill="white" stroke="white"/>
<circle cx="270" cy="166" r="6" fill="#389C28"/>
<path d="M269.593 167.283L267.617 165.3L267.164 165.762L269.593 168.206L273.48 164.247L273.027 163.785L269.593 167.283Z" fill="white" stroke="white"/>
<circle cx="270" cy="220" r="6" fill="#389C28"/>
<path d="M269.593 221.283L267.617 219.3L267.164 219.762L269.593 222.206L273.48 218.247L273.027 217.785L269.593 221.283Z" fill="white" stroke="white"/>
<circle cx="270" cy="265" r="6" fill="#389C28"/>
<path d="M269.593 266.283L267.617 264.3L267.164 264.762L269.593 267.206L273.48 263.247L273.027 262.785L269.593 266.283Z" fill="white" stroke="white"/>
<circle cx="270" cy="302" r="6" fill="#389C28"/>
<path d="M269.593 303.283L267.617 301.3L267.164 301.762L269.593 304.206L273.48 300.247L273.027 299.785L269.593 303.283Z" fill="white" stroke="white"/>
<circle cx="414" cy="67" r="6" fill="#E12222"/>
<path d="M411.25 64L416.75 69.5" stroke="white" stroke-width="1.5"/>
<path d="M416.75 64L411.25 69.5" stroke="white" stroke-width="1.5"/>
<circle cx="414" cy="111" r="6" fill="#E12222"/>
<path d="M411.25 108L416.75 113.5" stroke="white" stroke-width="1.5"/>
<path d="M416.75 108L411.25 113.5" stroke="white" stroke-width="1.5"/>
<circle cx="414" cy="166" r="6" fill="#E12222"/>
<path d="M411.25 163L416.75 168.5" stroke="white" stroke-width="1.5"/>
<path d="M416.75 163L411.25 168.5" stroke="white" stroke-width="1.5"/>
<circle cx="414" cy="220" r="6" fill="#E12222"/>
<path d="M411.25 217L416.75 222.5" stroke="white" stroke-width="1.5"/>
<path d="M416.75 217L411.25 222.5" stroke="white" stroke-width="1.5"/>
<circle cx="414" cy="265" r="6" fill="#E12222"/>
<path d="M411.25 262L416.75 267.5" stroke="white" stroke-width="1.5"/>
<path d="M416.75 262L411.25 267.5" stroke="white" stroke-width="1.5"/>
<circle cx="414" cy="302" r="6" fill="#E12222"/>
<path d="M411.25 299L416.75 304.5" stroke="white" stroke-width="1.5"/>
<path d="M416.75 299L411.25 304.5" stroke="white" stroke-width="1.5"/>
</svg>
